<svg width="217" height="300" viewBox="0 0 217 300" fill="none" xmlns="http://www.w3.org/2000/svg">
<path d="M179.802 254.498C178.257 254.498 176.711 254.498 175.166 254.498C175.166 265.74 175.166 276.986 175.166 288.228C175.166 293.675 175.075 296.883 171.249 298.459C170.603 298.725 169.494 299.21 168.291 298.938C162.894 297.716 163.335 292.31 163.335 285.669C163.335 275.252 163.335 264.833 163.335 254.417C160.405 254.477 152.725 255.009 151.585 253.458C150.568 252.075 152.854 243.856 153.423 241.948C156.113 230.519 158.805 219.087 161.496 207.658C162.268 204.541 163.041 201.423 163.814 198.306C164.114 197.118 164.639 195.41 163.894 194.389C163.531 193.892 162.672 193.328 161.976 193.43C158.71 193.907 158.727 199.521 157.82 202.382C155.103 212.292 152.384 222.206 149.667 232.116C148.557 234.013 145.384 236.001 142.394 234.434C137.31 231.771 140.526 224.576 141.915 219.887C144.579 210.749 147.244 201.609 149.908 192.471C151.588 186.27 152.854 180.778 159.34 179.442C162.552 178.78 166.857 179.282 170.37 179.282C175.991 179.282 181.614 179.282 187.235 179.282C189.943 179.282 193.283 178.901 195.708 179.442C198.104 179.977 200.397 181.523 201.703 183.199C203.361 185.326 203.826 188.257 204.741 191.192C206.313 196.707 207.885 202.223 209.457 207.737C211.349 214.184 213.24 220.633 215.132 227.08C215.936 229.619 215.411 232.273 213.773 233.634C211.103 235.854 206.903 234.783 205.38 232.275C204.116 230.195 203.895 226.939 203.222 224.442C201.224 217.036 199.225 209.628 197.227 202.221C196.629 200.226 195.869 195.372 194.589 194.148C193.639 193.24 191.714 193.177 190.992 194.388C190.343 195.477 190.881 197.062 191.152 198.225C191.898 201.262 192.644 204.3 193.39 207.337C196.08 218.739 198.772 230.145 201.463 241.547C202.028 243.738 204.475 251.983 203.381 253.457C202.208 255.038 194.593 254.436 191.631 254.416C191.631 264.806 191.631 275.199 191.631 285.589C191.632 292.135 192.158 297.789 186.675 298.937C182.793 299.75 180.428 296.483 179.881 293.821C179.854 291.876 179.828 289.931 179.801 287.987C179.802 276.826 179.802 265.66 179.802 254.498Z" fill="black" />
<path d="M110.474 240.54C108.875 240.54 107.277 240.54 105.678 240.54C105.678 255.539 105.678 270.541 105.678 285.54C105.679 291.584 106.386 296.677 102.161 298.568C101.347 298.932 100.159 299.417 98.8837 299.128C96.7797 298.65 95.1577 297.205 94.4077 295.371C93.6597 293.543 93.9277 290.516 93.9287 288.017C93.9287 283.195 93.9287 278.372 93.9287 273.55C93.9017 247.362 93.8757 221.167 93.8487 194.979C93.0937 193.036 89.7797 193.031 89.2927 195.219C89.2927 205.875 89.2927 216.534 89.2927 227.191C89.2927 229.029 89.5037 231.267 88.8937 232.546C87.7207 235.003 84.0187 236.88 80.9007 234.944C77.7537 232.99 78.5027 227.986 78.5027 222.954C78.5027 212.058 78.5027 201.159 78.5027 190.263C79.0677 185.034 82.0107 181.011 86.7357 179.712C89.0047 179.088 92.3826 179.472 95.0486 179.472C100.59 179.472 106.133 179.472 111.674 179.472C115.696 179.472 119.72 179.472 123.743 179.472C125.661 179.472 127.92 179.242 129.498 179.712C133.086 180.782 135.68 183.57 137.011 186.905C138.053 189.517 137.65 193.849 137.65 197.376C137.65 204.382 137.65 211.391 137.65 218.397C137.651 225.223 139.254 234.083 133.814 235.582C129.998 236.634 127.427 233.934 126.86 231.106C126.86 229.188 126.86 227.269 126.86 225.351C126.86 215.334 126.86 205.314 126.86 195.298C126.271 192.913 122.699 193.008 122.144 195.378C122.144 221.485 122.144 247.601 122.144 273.709C122.144 278.557 122.144 283.407 122.144 288.256C122.144 290.57 122.45 293.581 121.745 295.29C120.976 297.153 119.377 298.695 117.189 299.126C115.906 299.378 114.586 298.922 113.752 298.486C109.757 296.403 110.474 291.298 110.475 285.298C110.474 270.381 110.474 255.458 110.474 240.54Z" fill="black" />
<path d="M41.1737 254.687C39.6287 254.687 38.0837 254.687 36.5377 254.687C36.5377 265.316 36.5377 275.949 36.5377 286.579C36.5387 292.583 36.8817 298.08 31.9817 299.128C27.7597 300.03 25.4437 296.744 24.7877 293.933C24.7617 291.908 24.7347 289.883 24.7077 287.858C24.7077 276.775 24.7077 265.69 24.7077 254.607C21.7777 254.667 14.0987 255.199 12.9577 253.648C11.9407 252.265 14.2267 244.046 14.7957 242.138C17.4867 230.709 20.1777 219.277 22.8687 207.848C23.6407 204.731 24.4137 201.613 25.1867 198.496C25.4867 197.308 26.0117 195.6 25.2667 194.579C24.9047 194.082 24.0447 193.518 23.3487 193.62C20.0827 194.097 20.0997 199.711 19.1917 202.572C16.4747 212.482 13.7557 222.396 11.0387 232.306C9.92868 234.203 6.75567 236.191 3.76567 234.624C-1.31834 231.961 1.89766 224.766 3.28666 220.077C5.95066 210.939 8.61567 201.799 11.2797 192.661C12.9597 186.46 14.2257 180.968 20.7117 179.632C23.9237 178.97 28.2287 179.472 31.7417 179.472C37.3637 179.472 42.9857 179.472 48.6067 179.472C51.3157 179.472 54.6547 179.091 57.0797 179.632C59.4757 180.167 61.7687 181.713 63.0747 183.389C64.7327 185.516 65.1976 188.447 66.1126 191.382C67.6846 196.897 69.2567 202.413 70.8287 207.927C72.7207 214.374 74.6127 220.823 76.5037 227.27C77.3077 229.809 76.7827 232.463 75.1447 233.824C72.4757 236.044 68.2757 234.973 66.7517 232.465C65.4877 230.385 65.2667 227.129 64.5937 224.632C62.5957 217.226 60.5967 209.818 58.5987 202.411C57.9997 200.416 57.2407 195.562 55.9607 194.338C55.0107 193.43 53.0857 193.367 52.3637 194.578C51.7147 195.667 52.2527 197.252 52.5237 198.415C53.2697 201.452 54.0157 204.49 54.7617 207.527C57.4527 218.929 60.1437 230.335 62.8347 241.737C63.3997 243.928 65.8467 252.173 64.7527 253.647C63.5737 255.236 55.9717 254.626 53.0027 254.606C53.0027 265.076 53.0027 275.549 53.0027 286.019C53.0037 292.57 53.4267 297.993 48.0467 299.127C46.7327 299.404 45.4217 298.939 44.6897 298.567C41.2107 296.803 41.1717 293.472 41.1727 288.176C41.1737 277.015 41.1737 265.849 41.1737 254.687Z" fill="black" />
<path d="M177.535 175.716C169.933 175.767 162.849 168.224 166.105 159.89C167.801 155.549 171.094 152.973 176.336 152.137C184.61 150.816 191.361 160.493 188.165 168.443C186.877 171.647 184.021 174.19 180.572 175.237C179.56 175.396 178.547 175.557 177.535 175.716Z" fill="black" />
<path d="M108.555 175.716C100.295 175.771 93.2107 167.392 97.3647 158.851C99.1967 155.083 102.386 152.899 107.276 152.137C115.069 150.923 121.97 159.957 119.266 167.723C118.053 171.205 115.334 173.795 111.912 175.077C110.794 175.29 109.674 175.503 108.555 175.716Z" fill="black" />
<path d="M39.1757 175.716C31.5737 175.767 24.4897 168.224 27.7457 159.89C29.4417 155.549 32.7347 152.973 37.9767 152.137C46.2507 150.816 53.0016 160.493 49.8066 168.443C48.5186 171.645 45.6607 174.191 42.2137 175.237C41.2007 175.396 40.1887 175.557 39.1757 175.716Z" fill="black" />
<path d="M108.555 148.141C100.093 148.068 93.7846 140.021 97.5246 131.356C99.2326 127.398 102.921 125.138 108.076 124.562C115.307 123.753 122.284 132.567 119.426 140.148C118.16 143.507 115.627 146.373 112.153 147.502C111.096 147.844 109.71 147.701 108.555 148.141Z" fill="black" />
<path d="M179.693 103.38C178.148 103.38 176.602 103.38 175.057 103.38C175.057 114.623 175.057 125.868 175.057 137.11C175.058 142.557 174.966 145.765 171.14 147.341C170.494 147.607 169.386 148.093 168.183 147.82C162.786 146.599 163.226 141.192 163.227 134.552C163.227 124.135 163.227 113.716 163.227 103.3C160.298 103.36 152.618 103.892 151.477 102.341C150.46 100.958 152.746 92.7395 153.315 90.8315C156.005 79.4025 158.697 67.9705 161.388 56.5415C162.161 53.4245 162.933 50.3075 163.706 47.1895C164.006 46.0015 164.531 44.2935 163.786 43.2725C163.424 42.7755 162.564 42.2115 161.868 42.3135C158.602 42.7905 158.619 48.4045 157.712 51.2655C154.995 61.1755 152.276 71.0885 149.56 80.9995C148.45 82.8965 145.277 84.8845 142.286 83.3175C137.202 80.6545 140.418 73.4595 141.807 68.7705C144.471 59.6325 147.136 50.4925 149.8 41.3545C151.481 35.1535 152.746 29.6615 159.232 28.3255C162.444 27.6635 166.749 28.1655 170.263 28.1655C175.884 28.1655 181.507 28.1655 187.128 28.1655C189.836 28.1655 193.175 27.7845 195.6 28.3255C197.996 28.8605 200.289 30.4065 201.595 32.0825C203.253 34.2095 203.717 37.1405 204.632 40.0755C206.204 45.5905 207.776 51.1065 209.348 56.6205C211.24 63.0675 213.132 69.5165 215.023 75.9635C215.83 78.5135 215.231 81.2145 213.664 82.5175C210.994 84.7365 206.794 83.6655 205.271 81.1585C204.007 79.0775 203.786 75.8225 203.112 73.3255C201.114 65.9195 199.115 58.5115 197.117 51.1045C196.519 49.1085 195.76 44.2545 194.48 43.0315C193.53 42.1235 191.605 42.0595 190.883 43.2715C190.234 44.3605 190.772 45.9455 191.043 47.1075C191.789 50.1445 192.535 53.1825 193.281 56.2195C195.972 67.6215 198.663 79.0275 201.354 90.4295C201.919 92.6195 204.366 100.865 203.272 102.338C202.099 103.92 194.484 103.318 191.522 103.297C191.522 113.687 191.522 124.08 191.522 134.469C191.522 141.015 192.049 146.669 186.566 147.817C182.683 148.63 180.318 145.364 179.772 142.702C179.746 140.757 179.719 138.812 179.692 136.867C179.693 125.709 179.693 114.542 179.693 103.38Z" fill="black" />
<path d="M41.3347 103.38C39.7897 103.38 38.2437 103.38 36.6987 103.38C36.6987 114.623 36.6987 125.868 36.6987 137.11C36.6987 138.895 36.6987 140.68 36.6987 142.465C36.1737 145.157 33.7946 148.719 29.8246 147.82C24.4276 146.599 24.8677 141.192 24.8687 134.552C24.8687 124.135 24.8686 113.716 24.8686 103.3C21.9386 103.36 14.2586 103.892 13.1186 102.341C12.1016 100.958 14.3877 92.7395 14.9567 90.8315C17.6477 79.4025 20.3387 67.9705 23.0297 56.5415C23.8027 53.4245 24.5746 50.3075 25.3476 47.1895C25.6476 46.0015 26.1716 44.2935 25.4276 43.2725C25.0646 42.7755 24.2056 42.2115 23.5096 42.3135C20.2436 42.7905 20.2607 48.4045 19.3527 51.2655C16.6357 61.1755 13.9176 71.0885 11.1996 80.9995C10.0896 82.8965 6.91766 84.8845 3.92666 83.3175C-1.15634 80.6545 2.05866 73.4595 3.44766 68.7705C6.11165 59.6325 8.77663 50.4925 11.4406 41.3545C13.1216 35.1535 14.3866 29.6615 20.8726 28.3255C24.0846 27.6635 28.3896 28.1655 31.9026 28.1655C37.5236 28.1655 43.1467 28.1655 48.7677 28.1655C51.4757 28.1655 54.8147 27.7845 57.2407 28.3255C59.6367 28.8605 61.9286 30.4065 63.2356 32.0825C64.8936 34.2095 65.3576 37.1405 66.2726 40.0755C67.8446 45.5905 69.4166 51.1065 70.9886 56.6205C72.8806 63.0675 74.7727 69.5165 76.6637 75.9635C77.4677 78.5025 76.9427 81.1555 75.3047 82.5175C72.6357 84.7365 68.4357 83.6655 66.9127 81.1585C65.6487 79.0775 65.4277 75.8225 64.7547 73.3255C62.7567 65.9195 60.7576 58.5115 58.7596 51.1045C58.1616 49.1085 57.4016 44.2545 56.1216 43.0315C55.1716 42.1235 53.2466 42.0595 52.5246 43.2715C51.8756 44.3605 52.4137 45.9455 52.6847 47.1075C53.4317 50.1445 54.1776 53.1825 54.9236 56.2195C57.6136 67.6215 60.3056 79.0275 62.9966 90.4295C63.5616 92.6225 66.0086 100.861 64.9146 102.338C63.7326 103.935 56.1386 103.318 53.1646 103.297C53.1646 113.766 53.1646 124.239 53.1646 134.709C53.1656 141.26 53.5876 146.683 48.2086 147.817C44.3306 148.635 41.9636 145.356 41.4146 142.702C41.3886 140.757 41.3617 138.812 41.3347 136.867C41.3347 125.709 41.3347 114.542 41.3347 103.38Z" fill="black" />
<path d="M105.838 59.7395C107.437 59.7395 109.035 59.7395 110.633 59.7395C110.633 44.8205 110.633 29.8975 110.633 14.9785C110.633 8.9845 109.914 3.86448 113.91 1.79048C114.745 1.35648 116.064 0.896492 117.347 1.15049C119.533 1.58449 121.137 3.1215 121.903 4.9875C122.606 6.6985 122.302 9.70549 122.302 12.0215C122.302 16.8705 122.302 21.7205 122.302 26.5685C122.302 52.6765 122.302 78.7925 122.302 104.9C122.88 107.316 126.431 107.417 127.018 104.98C127.018 94.9635 127.018 84.9435 127.018 74.9265C127.018 73.0085 127.018 71.0895 127.018 69.1715C127.591 66.3515 130.153 63.6345 133.972 64.6945C139.413 66.2065 137.809 75.0445 137.808 81.8795C137.808 88.6465 137.808 95.4155 137.808 102.181C137.808 105.567 138.229 109.812 137.408 112.572C136.283 116.353 133.441 119.445 129.655 120.565C128.074 121.032 125.821 120.805 123.9 120.805C119.877 120.805 115.854 120.805 111.831 120.805C106.796 120.805 101.759 120.805 96.7237 120.805C93.6187 120.805 89.5747 121.303 86.8927 120.565C82.2067 119.276 79.1697 115.238 78.6597 110.014C78.6597 99.1185 78.6597 88.2195 78.6597 77.3235C78.6597 72.2965 77.9087 67.2815 81.0577 65.3335C84.1747 63.4055 87.8817 65.2675 89.0507 67.7315C89.6587 69.0135 89.4497 71.2465 89.4497 73.0865C89.4497 83.7425 89.4497 94.4015 89.4497 105.058C89.9467 107.231 93.2537 107.256 94.0057 105.298C94.0327 79.1105 94.0597 52.9155 94.0857 26.7275C94.0857 21.9055 94.0857 17.0825 94.0857 12.2605C94.0857 9.76348 93.8156 6.73248 94.5656 4.90648C95.3146 3.08048 96.9367 1.61549 99.0417 1.14949C100.321 0.866486 101.502 1.34048 102.319 1.70948C106.555 3.62048 105.837 8.74348 105.836 14.8175C105.838 29.7905 105.838 44.7675 105.838 59.7395Z" fill="black" />
<path d="M177.455 24.4105C169.8 24.0325 162.765 16.7045 166.505 8.02448C168.308 3.83948 171.621 1.61548 176.896 0.830476C178.228 0.632476 179.776 1.09747 180.732 1.39047C186.362 3.11447 191.284 9.49549 188.326 17.0565C187.038 20.3485 184.174 22.8655 180.653 23.9305C179.586 24.0905 178.521 24.2505 177.455 24.4105Z" fill="black" />
<path d="M39.0966 24.4105C31.4406 24.0325 24.4066 16.7045 28.1456 8.02448C29.9486 3.83948 33.2616 1.61548 38.5366 0.830476C39.8686 0.632476 41.4156 1.09747 42.3726 1.39047C48.0016 3.11447 52.9246 9.49549 49.9656 17.0565C48.6786 20.3465 45.8126 22.8655 42.2926 23.9305C41.2276 24.0905 40.1616 24.2505 39.0966 24.4105Z" fill="black" />
</svg>
