<svg width="217" height="300" viewBox="0 0 217 300" fill="none" xmlns="http://www.w3.org/2000/svg">
<path d="M36.701 45.5656C38.246 45.5656 39.792 45.5656 41.337 45.5656C41.337 34.3236 41.337 23.0776 41.337 11.8356C41.337 6.38859 41.428 3.18059 45.254 1.60459C45.9 1.33859 47.009 0.853585 48.212 1.12559C53.609 2.34759 53.168 7.75359 53.168 14.3946C53.168 24.8116 53.168 35.2306 53.168 45.6466C56.098 45.5866 63.778 45.0546 64.918 46.6056C65.935 47.9886 63.649 56.2076 63.08 58.1156C60.39 69.5446 57.698 80.9766 55.007 92.4056C54.235 95.5226 53.462 98.6406 52.689 101.758C52.389 102.946 51.864 104.654 52.609 105.675C52.972 106.172 53.831 106.736 54.527 106.634C57.793 106.157 57.776 100.543 58.683 97.6816C61.4 87.7716 64.119 77.8576 66.836 67.9476C67.946 66.0506 71.119 64.0626 74.109 65.6296C79.193 68.2926 75.977 75.4876 74.588 80.1766C71.924 89.3146 69.259 98.4546 66.595 107.593C64.915 113.794 63.649 119.286 57.163 120.622C53.951 121.284 49.646 120.782 46.133 120.782C40.512 120.782 34.889 120.782 29.268 120.782C26.56 120.782 23.22 121.163 20.795 120.622C18.399 120.087 16.106 118.541 14.8 116.865C13.142 114.738 12.677 111.807 11.762 108.872C10.19 103.357 8.61801 97.8406 7.04601 92.3266C5.15401 85.8796 3.26301 79.4306 1.37101 72.9836C0.567006 70.4446 1.092 67.7906 2.73 66.4296C5.4 64.2096 9.6 65.2806 11.123 67.7886C12.387 69.8686 12.608 73.1246 13.281 75.6216C15.279 83.0276 17.278 90.4356 19.276 97.8426C19.874 99.8376 20.634 104.692 21.914 105.916C22.864 106.824 24.789 106.887 25.511 105.676C26.16 104.587 25.622 103.002 25.351 101.839C24.605 98.8016 23.859 95.7636 23.113 92.7266C20.423 81.3246 17.731 69.9186 15.04 58.5166C14.475 56.3256 12.028 48.0806 13.122 46.6066C14.295 45.0256 21.91 45.6276 24.872 45.6476C24.872 35.2576 24.872 24.8646 24.872 14.4746C24.871 7.92859 24.345 2.27459 29.828 1.12659C33.71 0.313585 36.075 3.58059 36.622 6.24259C36.649 8.18759 36.675 10.1326 36.702 12.0766C36.701 23.2376 36.701 34.4036 36.701 45.5656Z" fill="black" />
<path d="M106.029 59.523C107.628 59.523 109.226 59.523 110.825 59.523C110.825 44.524 110.825 29.522 110.825 14.523C110.824 8.47899 110.117 3.38599 114.342 1.49499C115.156 1.13099 116.344 0.645988 117.619 0.934988C119.723 1.41299 121.345 2.85799 122.095 4.69199C122.843 6.51999 122.575 9.54699 122.574 12.046C122.574 16.868 122.574 21.691 122.574 26.513C122.601 52.701 122.627 78.896 122.654 105.084C123.409 107.027 126.723 107.032 127.21 104.844C127.21 94.188 127.21 83.529 127.21 72.872C127.21 71.034 126.999 68.796 127.609 67.517C128.782 65.06 132.484 63.183 135.602 65.119C138.749 67.073 138 72.077 138 77.109C138 88.005 138 98.904 138 109.8C137.435 115.029 134.492 119.052 129.767 120.351C127.498 120.975 124.12 120.591 121.454 120.591C115.913 120.591 110.37 120.591 104.829 120.591C100.807 120.591 96.783 120.591 92.76 120.591C90.842 120.591 88.583 120.821 87.005 120.351C83.417 119.281 80.823 116.493 79.492 113.158C78.45 110.546 78.853 106.214 78.853 102.687C78.853 95.681 78.853 88.672 78.853 81.666C78.852 74.84 77.249 65.98 82.689 64.481C86.505 63.429 89.076 66.129 89.643 68.957C89.643 70.875 89.643 72.794 89.643 74.712C89.643 84.729 89.643 94.749 89.643 104.765C90.232 107.15 93.804 107.055 94.359 104.685C94.359 78.578 94.359 52.462 94.359 26.354C94.359 21.506 94.359 16.656 94.359 11.807C94.359 9.49299 94.053 6.48199 94.758 4.77299C95.527 2.90999 97.126 1.36799 99.314 0.936988C100.597 0.684988 101.917 1.14099 102.751 1.57699C106.746 3.65999 106.029 8.76499 106.028 14.765C106.029 29.682 106.029 44.605 106.029 59.523Z" fill="black" />
<path d="M175.329 45.376C176.874 45.376 178.419 45.376 179.965 45.376C179.965 34.747 179.965 24.114 179.965 13.484C179.964 7.47999 179.621 1.98299 184.521 0.93499C188.743 0.0329904 191.059 3.31899 191.715 6.12999C191.741 8.15499 191.768 10.18 191.795 12.205C191.795 23.288 191.795 34.373 191.795 45.456C194.725 45.396 202.404 44.864 203.545 46.415C204.562 47.798 202.276 56.017 201.707 57.925C199.016 69.354 196.325 80.786 193.634 92.215C192.862 95.332 192.089 98.45 191.316 101.567C191.016 102.755 190.491 104.463 191.236 105.484C191.598 105.981 192.458 106.545 193.154 106.443C196.42 105.966 196.403 100.352 197.311 97.491C200.028 87.581 202.747 77.667 205.464 67.757C206.574 65.86 209.747 63.872 212.737 65.439C217.821 68.102 214.605 75.297 213.216 79.986C210.552 89.124 207.887 98.264 205.223 107.402C203.543 113.603 202.277 119.095 195.791 120.431C192.579 121.093 188.274 120.591 184.761 120.591C179.139 120.591 173.517 120.591 167.896 120.591C165.187 120.591 161.848 120.972 159.423 120.431C157.027 119.896 154.734 118.35 153.428 116.674C151.77 114.547 151.305 111.616 150.39 108.681C148.818 103.166 147.246 97.65 145.674 92.136C143.782 85.689 141.89 79.24 139.999 72.793C139.195 70.254 139.72 67.6 141.358 66.239C144.027 64.019 148.227 65.09 149.751 67.598C151.015 69.678 151.236 72.934 151.909 75.431C153.907 82.837 155.906 90.245 157.904 97.652C158.503 99.647 159.262 104.501 160.542 105.725C161.492 106.633 163.417 106.696 164.139 105.485C164.788 104.396 164.25 102.811 163.979 101.648C163.233 98.611 162.487 95.573 161.741 92.536C159.05 81.134 156.359 69.728 153.668 58.326C153.103 56.135 150.656 47.89 151.75 46.416C152.929 44.827 160.531 45.437 163.5 45.457C163.5 34.987 163.5 24.514 163.5 14.044C163.499 7.49299 163.076 2.06999 168.456 0.93599C169.77 0.65899 171.081 1.12399 171.813 1.49599C175.292 3.25999 175.331 6.59099 175.33 11.887C175.329 23.048 175.329 34.214 175.329 45.376Z" fill="black" />
<path d="M38.968 124.347C46.57 124.296 53.654 131.839 50.398 140.173C48.702 144.514 45.409 147.09 40.167 147.926C31.893 149.247 25.142 139.57 28.338 131.62C29.626 128.416 32.482 125.873 35.931 124.826C36.943 124.667 37.956 124.506 38.968 124.347Z" fill="black" />
<path d="M107.948 124.347C116.208 124.292 123.292 132.671 119.138 141.212C117.306 144.98 114.117 147.164 109.227 147.926C101.434 149.14 94.533 140.106 97.237 132.34C98.45 128.858 101.169 126.268 104.591 124.986C105.709 124.773 106.829 124.56 107.948 124.347Z" fill="black" />
<path d="M177.327 124.347C184.929 124.296 192.013 131.839 188.757 140.173C187.061 144.514 183.768 147.09 178.526 147.926C170.252 149.247 163.501 139.57 166.696 131.62C167.984 128.418 170.842 125.872 174.289 124.826C175.302 124.667 176.314 124.506 177.327 124.347Z" fill="black" />
<path d="M107.948 151.922C116.41 151.995 122.718 160.042 118.978 168.707C117.27 172.665 113.582 174.925 108.427 175.501C101.196 176.31 94.219 167.496 97.077 159.915C98.343 156.556 100.876 153.69 104.35 152.561C105.407 152.219 106.793 152.362 107.948 151.922Z" fill="black" />
<path d="M36.81 196.683C38.355 196.683 39.901 196.683 41.446 196.683C41.446 185.44 41.446 174.195 41.446 162.953C41.445 157.506 41.537 154.298 45.363 152.722C46.009 152.456 47.117 151.97 48.32 152.243C53.717 153.464 53.277 158.871 53.276 165.511C53.276 175.928 53.276 186.347 53.276 196.763C56.205 196.703 63.885 196.171 65.026 197.722C66.043 199.105 63.757 207.324 63.188 209.232C60.498 220.661 57.806 232.093 55.115 243.522C54.342 246.639 53.57 249.756 52.797 252.874C52.497 254.062 51.972 255.77 52.717 256.791C53.079 257.288 53.939 257.852 54.635 257.75C57.901 257.273 57.884 251.659 58.791 248.798C61.508 238.888 64.227 228.975 66.943 219.064C68.053 217.167 71.226 215.179 74.217 216.746C79.301 219.409 76.085 226.604 74.696 231.293C72.032 240.431 69.367 249.571 66.703 258.709C65.022 264.91 63.757 270.402 57.271 271.738C54.059 272.4 49.754 271.898 46.24 271.898C40.619 271.898 34.996 271.898 29.375 271.898C26.667 271.898 23.328 272.279 20.903 271.738C18.507 271.203 16.214 269.657 14.908 267.981C13.25 265.854 12.786 262.923 11.871 259.988C10.299 254.473 8.727 248.957 7.155 243.443C5.263 236.996 3.371 230.547 1.48 224.1C0.672999 221.55 1.27201 218.849 2.83901 217.546C5.50901 215.327 9.709 216.398 11.232 218.905C12.496 220.986 12.717 224.241 13.391 226.738C15.389 234.144 17.388 241.552 19.386 248.959C19.984 250.955 20.743 255.809 22.023 257.032C22.973 257.94 24.898 258.004 25.62 256.792C26.269 255.703 25.731 254.118 25.46 252.956C24.714 249.919 23.968 246.881 23.222 243.844C20.531 232.442 17.84 221.036 15.149 209.634C14.584 207.444 12.137 199.198 13.231 197.725C14.404 196.143 22.019 196.745 24.981 196.766C24.981 186.376 24.981 175.983 24.981 165.594C24.981 159.048 24.454 153.394 29.937 152.246C33.82 151.433 36.185 154.699 36.731 157.361C36.757 159.306 36.784 161.251 36.811 163.196C36.81 174.354 36.81 185.521 36.81 196.683Z" fill="black" />
<path d="M175.168 196.683C176.713 196.683 178.259 196.683 179.804 196.683C179.804 185.44 179.804 174.195 179.804 162.953C179.804 161.168 179.804 159.383 179.804 157.598C180.329 154.906 182.708 151.344 186.678 152.243C192.075 153.464 191.635 158.871 191.634 165.511C191.634 175.928 191.634 186.347 191.634 196.763C194.564 196.703 202.244 196.171 203.384 197.722C204.401 199.105 202.115 207.324 201.546 209.232C198.855 220.661 196.164 232.093 193.473 243.522C192.7 246.639 191.928 249.756 191.155 252.874C190.855 254.062 190.331 255.77 191.075 256.791C191.438 257.288 192.297 257.852 192.993 257.75C196.259 257.273 196.242 251.659 197.15 248.798C199.867 238.888 202.585 228.975 205.303 219.064C206.413 217.167 209.585 215.179 212.576 216.746C217.659 219.409 214.444 226.604 213.055 231.293C210.391 240.431 207.726 249.571 205.062 258.709C203.381 264.91 202.116 270.402 195.63 271.738C192.418 272.4 188.113 271.898 184.6 271.898C178.979 271.898 173.356 271.898 167.735 271.898C165.027 271.898 161.688 272.279 159.262 271.738C156.866 271.203 154.574 269.657 153.267 267.981C151.609 265.854 151.145 262.923 150.23 259.988C148.658 254.473 147.086 248.957 145.514 243.443C143.622 236.996 141.73 230.547 139.839 224.1C139.035 221.561 139.56 218.908 141.198 217.546C143.867 215.327 148.067 216.398 149.59 218.905C150.854 220.986 151.075 224.241 151.748 226.738C153.746 234.144 155.745 241.552 157.743 248.959C158.341 250.955 159.101 255.809 160.381 257.032C161.331 257.94 163.256 258.004 163.978 256.792C164.627 255.703 164.089 254.118 163.818 252.956C163.071 249.919 162.325 246.881 161.579 243.844C158.889 232.442 156.197 221.036 153.506 209.634C152.941 207.441 150.494 199.202 151.588 197.725C152.77 196.128 160.364 196.745 163.338 196.766C163.338 186.297 163.338 175.824 163.338 165.354C163.337 158.803 162.915 153.38 168.294 152.246C172.172 151.428 174.539 154.707 175.088 157.361C175.114 159.306 175.141 161.251 175.168 163.196C175.168 174.354 175.168 185.521 175.168 196.683Z" fill="black" />
<path d="M110.665 240.324C109.066 240.324 107.468 240.324 105.87 240.324C105.87 255.243 105.87 270.166 105.87 285.085C105.87 291.079 106.589 296.199 102.593 298.273C101.758 298.707 100.439 299.167 99.156 298.913C96.97 298.479 95.366 296.942 94.6 295.076C93.897 293.365 94.201 290.358 94.201 288.042C94.201 283.193 94.201 278.343 94.201 273.495C94.201 247.387 94.201 221.271 94.201 195.163C93.623 192.747 90.072 192.646 89.485 195.083C89.485 205.1 89.485 215.12 89.485 225.137C89.485 227.055 89.485 228.974 89.485 230.892C88.912 233.712 86.35 236.429 82.531 235.369C77.09 233.857 78.694 225.019 78.695 218.184C78.695 211.417 78.695 204.648 78.695 197.882C78.695 194.496 78.274 190.251 79.095 187.491C80.22 183.71 83.062 180.618 86.848 179.498C88.429 179.031 90.682 179.258 92.603 179.258C96.626 179.258 100.649 179.258 104.672 179.258C109.707 179.258 114.744 179.258 119.779 179.258C122.884 179.258 126.928 178.76 129.61 179.498C134.296 180.787 137.333 184.825 137.843 190.049C137.843 200.945 137.843 211.844 137.843 222.74C137.843 227.767 138.594 232.782 135.445 234.73C132.328 236.658 128.621 234.796 127.452 232.332C126.844 231.05 127.053 228.817 127.053 226.977C127.053 216.321 127.053 205.662 127.053 195.005C126.556 192.832 123.249 192.807 122.497 194.765C122.47 220.953 122.443 247.148 122.417 273.336C122.417 278.158 122.417 282.981 122.417 287.803C122.417 290.3 122.687 293.331 121.937 295.157C121.188 296.983 119.566 298.448 117.461 298.914C116.182 299.197 115.001 298.723 114.184 298.354C109.948 296.443 110.666 291.32 110.667 285.246C110.665 270.273 110.665 255.296 110.665 240.324Z" fill="black" />
<path d="M39.048 275.653C46.703 276.031 53.738 283.359 49.998 292.039C48.195 296.224 44.882 298.448 39.607 299.233C38.275 299.431 36.727 298.966 35.771 298.673C30.141 296.949 25.219 290.568 28.177 283.007C29.465 279.715 32.329 277.198 35.85 276.133C36.917 275.973 37.982 275.813 39.048 275.653Z" fill="black" />
<path d="M177.406 275.653C185.062 276.031 192.096 283.359 188.357 292.039C186.554 296.224 183.241 298.448 177.966 299.233C176.634 299.431 175.087 298.966 174.13 298.673C168.501 296.949 163.578 290.568 166.537 283.007C167.824 279.717 170.69 277.198 174.21 276.133C175.275 275.973 176.341 275.813 177.406 275.653Z" fill="black" />
</svg>
