<svg xmlns="http://www.w3.org/2000/svg" viewBox="0 0 116 121" width="116" height="121">
	<style>
		tspan { white-space:pre }
		.shp0 { fill: #000000 } 
	</style>
	<path id="Path 0" class="shp0" d="M46.5,1.8c-1.59,1.6 -1.81,3.97 -1.9,21.25l-0.1,19.45c-7.75,0.48 -10.35,0.93 -10.77,1.31c-0.42,0.38 2.16,13.29 5.75,28.69c3.59,15.4 6.29,28.79 6.02,29.75c-0.27,0.96 -1.06,1.91 -1.75,2.1c-0.69,0.19 -9.8,0.04 -20.25,-0.35c-15.19,-0.57 -19.45,-0.44 -21.25,0.65c-1.37,0.83 -2.25,2.33 -2.25,3.85c0,1.48 0.92,3.12 2.25,4.01c1.83,1.23 6.21,1.51 23.5,1.5l21.25,-0.01c6.46,6.46 7.69,7 11.5,7c3.9,0 4.9,-0.46 7.5,-3.5l3,-3.5c35.41,-0.03 42.23,-0.4 44,-1.29c1.45,-0.73 2.63,-2.3 2.81,-3.74c0.18,-1.43 -0.45,-3.19 -1.5,-4.18c-1.64,-1.54 -3.6,-1.63 -20.81,-0.88c-10.45,0.45 -19.62,0.54 -20.39,0.2c-0.76,-0.34 -1.73,-1.29 -2.15,-2.12c-0.44,-0.86 1.97,-13.18 5.67,-29c3.54,-15.12 6.19,-28.06 5.9,-28.75c-0.33,-0.76 -2.48,-1.25 -5.53,-1.25h-5c0,-37.26 -0.09,-38.1 -2.25,-40.64c-1.79,-2.1 -2.81,-2.51 -5,-2c-1.64,0.38 -3.15,1.64 -3.75,3.14c-0.55,1.38 -1,10.83 -1,21c0,17.83 -0.07,18.5 -2,18.5c-1.93,0 -2,-0.67 -2,-19.5c0,-18.17 -0.14,-19.64 -2,-21.5c-1.1,-1.1 -2.83,-2 -3.85,-2c-1.02,0 -2.66,0.81 -3.65,1.8z" />
</svg>