<?xml version="1.0" encoding="utf-8"?>
<!-- Generator: Adobe Illustrator 15.0.2, SVG Export Plug-In . SVG Version: 6.00 Build 0)  -->
<!DOCTYPE svg PUBLIC "-//W3C//DTD SVG 1.1//EN" "http://www.w3.org/Graphics/SVG/1.1/DTD/svg11.dtd">
<svg version="1.1" id="Livello_1" xmlns="http://www.w3.org/2000/svg" xmlns:xlink="http://www.w3.org/1999/xlink" x="0px" y="0px"
	 width="652.08px" height="568.8px" viewBox="0 0 652.08 568.8" enable-background="new 0 0 652.08 568.8" xml:space="preserve">
<path stroke="#FFFFFF" stroke-miterlimit="10" d="M116.88,61.2c24.987-0.268,45.623,23.391,34.56,49.44
	c-5.314,12.513-15.844,19.125-31.68,21.36c-21.787,3.076-42.714-23.715-34.56-46.8c3.683-10.428,11.561-18.227,21.84-22.08
	C110.32,62.48,113.6,61.84,116.88,61.2z"/>
<path stroke="#FFFFFF" stroke-miterlimit="10" d="M325.2,61.2c24.512-0.265,44.993,23.663,34.08,49.2
	c-5.318,12.445-15.698,19.389-31.44,21.6c-22.878,3.213-43.741-25.19-34.32-48.24c4.09-10.007,12.046-17.798,22.8-21.12
	C319.28,62.16,322.24,61.68,325.2,61.2z"/>
<path stroke="#FFFFFF" stroke-miterlimit="10" d="M532.32,61.2c24.987-0.269,45.623,23.391,34.56,49.44
	c-5.315,12.517-15.84,19.124-31.68,21.36c-21.788,3.076-42.714-23.716-34.56-46.8c3.683-10.428,11.561-18.227,21.84-22.08
	C525.76,62.48,529.04,61.84,532.32,61.2z"/>
<path stroke="#FFFFFF" stroke-miterlimit="10" d="M161.28,368.88c0,31.437,0,62.883,0,94.32c0.002,19.67,1.271,35.954-14.88,39.36
	c-3.948,0.833-7.882-0.565-10.08-1.68c-10.444-5.297-10.562-15.298-10.56-31.2c0-33.517,0-67.043,0-100.56c-4.639,0-9.28,0-13.92,0
	c0,33.757,0,67.523,0,101.28c0.002,15.88-0.19,26.343-11.52,30.72c-2.046,0.791-5.447,2.271-9.12,1.44
	c-16.206-3.668-14.882-19.902-14.88-39.84c0-31.277,0-62.563,0-93.84c-8.797,0.18-31.856,1.778-35.28-2.88
	c-3.053-4.154,3.81-28.83,5.52-34.56c8.079-34.317,16.161-68.644,24.24-102.96c2.32-9.359,4.64-18.721,6.96-28.08
	c0.9-3.567,2.476-8.695,0.24-11.76c-1.088-1.492-3.668-3.186-5.76-2.88c-9.806,1.433-9.755,18.289-12.48,26.88
	c-8.159,29.757-16.321,59.523-24.48,89.28c-3.333,5.697-12.859,11.665-21.84,6.96c-15.265-7.997-5.608-29.601-1.44-43.68
	c7.999-27.437,16.001-54.883,24-82.32c5.045-18.618,8.844-35.109,28.32-39.12c9.645-1.986,22.57-0.48,33.12-0.48
	c16.878,0,33.762,0,50.64,0c8.133,0,18.159-1.145,25.44,0.48c7.193,1.605,14.079,6.249,18,11.28c4.979,6.388,6.372,15.188,9.12,24
	c4.719,16.558,9.44,33.122,14.16,49.68c5.68,19.358,11.361,38.722,17.04,58.08c2.414,7.624,0.837,15.592-4.08,19.68
	c-8.016,6.665-20.626,3.449-25.2-4.08c-3.795-6.247-4.459-16.023-6.48-23.52c-6-22.238-12-44.482-18-66.72
	c-1.796-5.992-4.077-20.566-7.92-24.24c-2.852-2.727-8.631-2.917-10.8,0.72c-1.949,3.269-0.334,8.029,0.48,11.52
	c2.24,9.119,4.48,18.241,6.72,27.36c8.079,34.236,16.161,68.483,24.24,102.72c1.696,6.579,9.043,31.335,5.76,35.76
	C193.025,370.766,170.188,368.942,161.28,368.88z"/>
<path stroke="#FFFFFF" stroke-miterlimit="10" d="M333.84,326.64c-4.799,0-9.601,0-14.4,0c0,45.036,0,90.084,0,135.12
	c0.002,18.125,2.134,33.474-10.56,39.12c-2.438,1.084-6.017,2.561-9.84,1.68c-6.338-1.46-11.159-5.758-13.44-11.28
	c-2.239-5.419-1.441-14.416-1.44-21.84c0-14.559,0-29.122,0-43.68c-0.08-78.632-0.16-157.288-0.24-235.92
	c-2.299-5.874-12.146-5.808-13.68,0.72c0,31.997,0,64.003,0,96c0.001,5.514,0.638,12.246-1.2,16.08
	c-3.535,7.374-14.625,13.015-24,7.2c-9.485-5.883-7.201-21.083-7.2-36.24c0-32.637,0-65.283,0-97.92
	c1.251-15.721,10.861-27.774,24.72-31.68c6.776-1.91,16.982-0.721,24.96-0.72c16.798,0,33.602,0,50.4,0c11.919,0,23.841,0,35.76,0
	c5.761,0,12.544-0.693,17.28,0.72c10.887,3.249,18.396,11.586,22.56,21.6c3.198,7.691,1.92,20.745,1.92,31.2
	c0,21.118,0,42.242,0,63.36c0.001,20.586,4.826,46.982-11.52,51.6c-11.521,3.255-19.076-5.035-20.88-13.44c0-5.679,0-11.361,0-17.04
	c0-30.157,0-60.323,0-90.48c-1.794-7.23-12.402-6.84-14.16,0.24c0,78.312,0,156.647,0,234.96c0,14.638,0,29.281,0,43.92
	c0.001,6.947,0.918,15.989-1.2,21.12c-2.336,5.661-7.097,10.129-13.68,11.52c-2.997,0.633-6.175-0.342-8.16-1.2
	c-14.823-6.407-12.001-19.461-12-40.32C333.84,416.244,333.84,371.436,333.84,326.64z"/>
<path stroke="#FFFFFF" stroke-miterlimit="10" d="M576.72,368.88c0,31.197,0,62.403,0,93.6c0.002,19.654,1.583,36.632-14.88,40.08
	c-11.658,2.442-18.758-7.366-20.4-15.36c-0.08-5.839-0.16-11.681-0.24-17.52c0-33.517,0-67.043,0-100.56c-4.64,0-9.281,0-13.92,0
	c0,33.757,0,67.523,0,101.28c0.002,16.355-0.274,25.99-11.76,30.72c-1.94,0.799-5.269,2.258-8.88,1.44
	c-16.206-3.667-14.882-19.902-14.88-39.84c0-31.277,0-62.563,0-93.84c-8.796,0.18-31.856,1.778-35.28-2.88
	c-3.053-4.154,3.81-28.83,5.52-34.56c8.079-34.317,16.161-68.644,24.24-102.96c2.319-9.359,4.64-18.721,6.96-28.08
	c0.9-3.567,2.476-8.695,0.24-11.76c-1.088-1.492-3.668-3.186-5.76-2.88c-9.806,1.433-9.755,18.289-12.48,26.88
	c-8.159,29.757-16.321,59.523-24.48,89.28c-3.333,5.697-12.859,11.665-21.84,6.96c-15.265-7.997-5.608-29.601-1.44-43.68
	c7.999-27.437,16.001-54.883,24-82.32c5.045-18.618,8.844-35.109,28.32-39.12c9.645-1.986,22.57-0.48,33.12-0.48
	c16.878,0,33.762,0,50.64,0c8.133,0,18.159-1.145,25.44,0.48c7.193,1.605,14.079,6.249,18,11.28c4.979,6.388,6.372,15.188,9.12,24
	c4.719,16.558,9.44,33.122,14.16,49.68c5.679,19.358,11.36,38.722,17.04,58.08c2.414,7.624,0.837,15.592-4.08,19.68
	c-8.016,6.665-20.627,3.449-25.2-4.08c-3.795-6.247-4.459-16.023-6.48-23.52c-6-22.238-12-44.482-18-66.72
	c-1.795-5.992-4.077-20.566-7.92-24.24c-2.852-2.727-8.631-2.917-10.8,0.72c-1.949,3.269-0.334,8.029,0.48,11.52
	c2.24,9.119,4.48,18.241,6.72,27.36c8.079,34.236,16.161,68.483,24.24,102.72c1.696,6.578,9.042,31.335,5.76,35.76
	C608.478,370.748,585.613,368.942,576.72,368.88z"/>
</svg>
