<svg xmlns="http://www.w3.org/2000/svg" viewBox="0 0 2480 370" width="300" height="45">
	<style>
		tspan { white-space:pre }
		.shp0 { fill: #000000 } 
	</style>
	<path id="Path 0" class="shp0" d="M1248.5,118.09c8.14,-0.08 13.08,0.42 19,1.95c4.4,1.13 11.57,3.95 15.94,6.26c4.36,2.31 10.89,6.93 14.5,10.27c3.61,3.34 8.55,9.19 10.97,13c2.42,3.81 5.53,9.85 6.92,13.43c2.1,5.44 2.59,8.71 2.98,20c0.42,11.91 0.21,14.38 -1.76,21c-1.23,4.13 -3.54,9.97 -5.14,13c-1.6,3.03 -4.82,7.85 -7.16,10.72c-2.34,2.87 -6.72,7.28 -9.75,9.8c-3.03,2.52 -9.1,6.35 -13.5,8.52c-4.4,2.17 -10.92,4.67 -14.5,5.56c-4.92,1.22 -9.91,1.51 -20.5,1.22c-12.12,-0.34 -15.01,-0.76 -21.5,-3.11c-4.12,-1.49 -9.96,-4.18 -12.96,-5.96c-3,-1.78 -8.89,-6.62 -13.1,-10.74c-4.8,-4.72 -9.07,-10.1 -11.49,-14.5c-2.12,-3.85 -4.69,-9.7 -5.72,-13c-1.03,-3.32 -2.12,-10.69 -2.44,-16.5c-0.47,-8.71 -0.21,-11.95 1.56,-19c1.17,-4.68 3.48,-11.2 5.14,-14.5c1.66,-3.3 5.18,-8.7 7.82,-12c2.65,-3.3 7.71,-8.2 11.24,-10.89c3.54,-2.69 9.24,-6.22 12.68,-7.84c3.44,-1.62 6.81,-3.06 7.5,-3.2c0.69,-0.14 1.92,-0.55 2.75,-0.9c0.83,-0.35 3.3,-1.05 5.5,-1.55c2.2,-0.5 8.95,-0.96 15,-1.02zM1227.83,123.35c0.09,-0.19 -3.55,1.53 -8.08,3.82c-6.49,3.27 -10.18,6.1 -17.31,13.25c-6.51,6.53 -9.96,10.92 -12.23,15.59c-1.74,3.57 -3.85,9.2 -4.69,12.5c-0.93,3.67 -1.53,10.48 -1.53,17.5c0,7.03 0.59,13.74 1.51,17.25c0.83,3.16 2.82,8.34 4.43,11.5c1.61,3.16 5.1,8.34 7.75,11.51c2.65,3.17 7.3,7.8 10.32,10.29c3.03,2.49 8.2,5.87 11.5,7.51c3.3,1.64 8.47,3.64 11.5,4.45c3.03,0.81 6.74,1.47 8.25,1.48c1.51,0.01 2.75,0.35 2.75,0.76c0,0.41 3.38,0.75 7.5,0.75c4.13,0 7.49,-0.22 7.49,-0.5c-0.01,-0.28 2.13,-0.8 4.75,-1.16c2.62,-0.37 7.24,-1.52 10.26,-2.56c3.03,-1.04 8.2,-3.51 11.5,-5.49c3.3,-1.98 9.4,-7.13 13.55,-11.44c5.2,-5.4 8.71,-10.18 11.26,-15.35c2.04,-4.12 4.43,-10.87 5.3,-15c1.14,-5.4 1.44,-10.44 1.05,-18c-0.32,-6.23 -1.35,-13.14 -2.55,-17c-1.1,-3.57 -4.2,-9.87 -6.88,-14c-2.68,-4.12 -7.99,-10.35 -11.81,-13.83c-3.96,-3.62 -9.93,-7.79 -13.93,-9.73c-3.85,-1.87 -9.7,-4.09 -13,-4.92c-3.77,-0.96 -10.27,-1.49 -17.5,-1.45c-6.33,0.04 -13.71,0.65 -16.42,1.35c-2.7,0.7 -4.84,1.12 -4.75,0.93zM1590.5,125.28c12.69,0.29 14.52,0.57 19.5,2.95c3.03,1.45 8.04,4.57 11.14,6.95c3.1,2.38 6.52,5.44 7.59,6.82c1.07,1.38 3.14,4.53 4.59,7c1.45,2.47 3.76,8.1 5.14,12.5c2.04,6.51 2.51,10.05 2.51,19c0,8.28 -0.52,12.73 -2.1,18c-1.15,3.85 -3.47,9.7 -5.14,13c-1.67,3.3 -5.45,8.36 -8.39,11.25c-2.94,2.89 -8.15,6.6 -11.59,8.24c-3.44,1.64 -9.4,3.66 -13.25,4.48c-3.85,0.82 -8.91,1.5 -11.25,1.51c-2.34,0.01 -7.51,-0.6 -11.5,-1.36c-3.99,-0.76 -9.28,-2.25 -11.75,-3.31c-2.47,-1.06 -6.53,-3.3 -9,-4.97c-2.47,-1.67 -6.84,-6.14 -9.69,-9.94c-2.86,-3.8 -6.07,-9.38 -7.14,-12.4c-1.07,-3.03 -2.51,-9.32 -3.19,-14c-0.74,-5.03 -0.99,-11.57 -0.6,-16c0.36,-4.12 1.31,-9.97 2.13,-13c0.81,-3.03 2.6,-7.75 3.97,-10.5c1.37,-2.75 4.41,-7.21 6.76,-9.91c2.35,-2.7 6.75,-6.59 9.77,-8.64c3.03,-2.05 8.2,-4.69 11.5,-5.86c5.26,-1.87 7.73,-2.09 20,-1.81zM1564.08,134.29c-2.98,1.77 -7.72,5.46 -10.53,8.21c-3.74,3.67 -5.96,7.06 -8.33,12.75c-1.9,4.57 -3.67,11.13 -4.31,16c-0.6,4.54 -0.8,11.4 -0.46,15.25c0.35,3.85 1.33,9.47 2.19,12.5c0.86,3.03 2.59,7.53 3.85,10c1.26,2.47 4.06,6.53 6.23,9c2.17,2.47 6.15,5.95 8.85,7.71c2.74,1.79 8.45,4.12 12.92,5.26c4.4,1.13 10.47,2.05 13.5,2.04c3.03,0 8.2,-0.51 11.5,-1.12c3.3,-0.61 8.47,-2.22 11.5,-3.57c3.03,-1.35 7.3,-3.95 9.5,-5.78c2.2,-1.82 5.58,-5.95 7.5,-9.16c1.92,-3.21 4.65,-9.23 6.05,-13.36c1.83,-5.4 2.63,-10.07 2.82,-16.52c0.17,-5.77 -0.34,-11.69 -1.42,-16.5c-0.93,-4.12 -2.91,-10.2 -4.39,-13.5c-1.48,-3.3 -4.24,-7.75 -6.13,-9.9c-1.89,-2.14 -5.91,-5.57 -8.93,-7.62c-3.03,-2.05 -7.75,-4.52 -10.5,-5.48c-3.03,-1.06 -8.94,-1.9 -15,-2.12c-6.93,-0.26 -11.69,0.1 -15.5,1.16c-3.03,0.84 -7.94,2.98 -10.92,4.75zM1778.5,125.08c7.63,-0.03 15.06,0.48 18,1.25c2.75,0.72 7.7,2.91 11,4.88c3.3,1.97 6.67,4.32 7.5,5.23c1,1.1 1.17,1.98 0.5,2.65c-0.67,0.67 -2.98,-0.27 -7,-2.86c-3.3,-2.13 -7.35,-4.37 -9,-4.98c-1.65,-0.62 -5.36,-1.6 -8.25,-2.18c-2.89,-0.59 -8.74,-1.05 -13,-1.03c-4.26,0.02 -10.45,0.6 -13.75,1.29c-3.3,0.69 -8.68,2.59 -11.96,4.21c-3.28,1.63 -8.49,5.43 -11.57,8.46c-3.45,3.38 -6.67,7.81 -8.37,11.5c-1.52,3.3 -3.23,6.9 -3.8,8c-0.57,1.1 -1.51,5.82 -2.09,10.5c-0.72,5.79 -0.73,11.21 -0.05,17c0.77,6.58 1.93,10.42 5.1,17c2.25,4.68 5.64,10.3 7.52,12.5c1.88,2.2 6.08,5.44 9.33,7.2c3.25,1.76 9.51,4.13 13.91,5.26c5.09,1.31 11.09,2.05 16.5,2.03c4.67,-0.02 11.65,-0.7 15.5,-1.51c3.85,-0.82 10.26,-3.06 21.5,-8.48v-32h-12.5c-11.34,0 -12.48,-0.16 -12.24,-1.75c0.23,-1.55 1.75,-1.78 13,-2c10.23,-0.2 13.03,0.04 14.24,1.25c1.22,1.22 1.5,4.68 1.48,18.25c-0.01,9.21 -0.35,17.28 -0.75,17.92c-0.4,0.64 -3.43,2.51 -6.73,4.14c-3.3,1.63 -8.03,3.65 -10.5,4.47c-2.47,0.83 -8.1,2.07 -12.5,2.76c-4.7,0.74 -11.1,1 -15.5,0.64c-4.12,-0.34 -10.2,-1.32 -13.5,-2.18c-3.3,-0.86 -8.47,-2.76 -11.5,-4.22c-3.03,-1.46 -8.04,-5.16 -11.15,-8.22c-4.14,-4.07 -6.75,-7.91 -9.75,-14.31c-2.26,-4.82 -4.61,-11.78 -5.24,-15.5c-0.65,-3.83 -0.9,-10.85 -0.58,-16.25c0.42,-7.07 1.28,-11.29 3.35,-16.5c1.53,-3.85 3.92,-9.03 5.31,-11.5c1.39,-2.47 4.33,-6.24 6.54,-8.36c2.21,-2.12 6.94,-5.58 10.51,-7.68c3.58,-2.1 8.97,-4.5 12,-5.32c3.51,-0.96 10.2,-1.52 18.5,-1.56zM470.5,126.14c5.29,-0.06 11.47,0.54 15,1.46c3.3,0.86 8.25,2.68 11,4.04c2.75,1.36 7.87,5.26 11.37,8.67c4.52,4.39 7.33,8.23 9.64,13.19c1.8,3.85 3.84,9.7 4.54,13c0.7,3.3 1.27,10.28 1.27,15.5c0,5.22 -0.56,12.2 -1.24,15.5c-0.68,3.3 -2.89,9.33 -4.91,13.41c-2.56,5.18 -5.47,9.1 -9.67,13.03c-3.3,3.09 -9.15,7.18 -20,12.56h-32l-7.75,-3.75c-5.29,-2.56 -9.58,-5.6 -13.5,-9.58c-3.16,-3.21 -6.96,-8.05 -8.44,-10.75c-1.48,-2.7 -3.67,-8.97 -4.86,-13.92c-1.79,-7.44 -2.08,-10.91 -1.66,-20c0.37,-7.94 1.18,-12.94 2.91,-18c1.32,-3.85 3.94,-9.25 5.81,-12c1.88,-2.75 5.68,-7.17 8.45,-9.81c2.77,-2.65 7.29,-5.91 10.04,-7.26c2.75,-1.34 7.25,-3.06 10,-3.81c2.75,-0.75 9.05,-1.42 14,-1.48zM453.5,132.52c-2.75,0.93 -6.35,2.5 -8,3.5c-1.65,1 -5.54,4.44 -8.65,7.65c-3.11,3.21 -6.81,8.31 -8.23,11.33c-1.42,3.03 -3.26,8.65 -4.08,12.5c-0.83,3.85 -1.5,10.38 -1.5,14.5c0,4.13 0.61,10.43 1.35,14c0.74,3.57 2.72,9.43 4.4,13c1.94,4.14 4.99,8.35 8.38,11.6c2.93,2.8 8.71,6.85 12.83,8.99l7.5,3.9l27,0.02c12.01,-5.81 17.58,-9.41 20.12,-11.75c2.54,-2.34 5.67,-6.05 6.96,-8.25c1.29,-2.2 3.35,-6.7 4.57,-10c1.95,-5.25 2.23,-7.93 2.23,-21.5c0,-13.57 -0.28,-16.25 -2.23,-21.5c-1.23,-3.3 -3.29,-7.8 -4.58,-10c-1.29,-2.2 -4.54,-6.06 -7.21,-8.59c-2.67,-2.52 -7.11,-5.72 -9.86,-7.11c-2.75,-1.39 -7.25,-3.01 -10,-3.6c-2.75,-0.59 -7.02,-1.26 -9.5,-1.48c-2.48,-0.23 -7.2,-0.07 -10.5,0.35c-3.3,0.42 -8.25,1.52 -11,2.45zM1368.5,126c1.31,0 1.5,4.72 1.5,36.5c0,23.47 0.41,38.37 1.13,41.75c0.62,2.89 2.4,7.5 3.94,10.25c1.54,2.75 4.52,6.73 6.62,8.85c2.1,2.12 5.39,4.64 7.31,5.61c1.92,0.97 5.97,2.34 9,3.04c3.23,0.75 8.6,1.07 13,0.78c4.89,-0.32 9.41,-1.35 13,-2.94c3.03,-1.34 7.45,-4.45 9.84,-6.9c2.38,-2.45 5.76,-7.37 10.66,-17.4l0.5,-39.51c0.46,-36.64 0.63,-39.53 2.25,-39.77c1.65,-0.25 1.74,2.14 1.25,80.35l-3.5,6.86c-1.92,3.77 -5.12,8.7 -7.11,10.95c-1.98,2.25 -6.03,5.41 -9,7.01c-2.97,1.61 -7.64,3.52 -10.39,4.24c-2.75,0.72 -7.7,1.31 -11,1.31c-3.3,0 -8.25,-0.6 -11,-1.34c-2.75,-0.73 -6.91,-2.3 -9.25,-3.49c-2.34,-1.18 -6.09,-3.84 -8.34,-5.9c-2.46,-2.25 -5.67,-6.95 -11.97,-19.75l0.03,-40.25c0.03,-35.1 0.22,-40.25 1.53,-40.25zM1911,126c1.95,0 2,0.67 2,52h76v-26c0,-25.33 0.05,-26 2,-26c1.98,0 2,0.67 2,54.5c0,53.83 -0.02,54.5 -2,54.5c-1.95,0 -2,-0.67 -2,-54h-76v27c0,26.33 -0.05,27 -2,27c-1.98,0 -2,-0.67 -2,-54.5c0,-53.83 0.02,-54.5 2,-54.5zM2091.58,126c1.2,0 1.42,8.18 1.42,54.5c0,47.78 -0.19,54.5 -1.5,54.5c-0.82,0 -1.72,-0.68 -2,-1.5c-0.28,-0.82 -0.5,-24.68 -0.5,-53c0,-28.32 0.26,-52.18 0.58,-53c0.32,-0.83 1.22,-1.5 2,-1.5zM273.24,126.76l19.13,0.49c13.44,0.35 20.62,0.96 24.13,2.07c2.75,0.87 6.55,2.61 8.45,3.88c1.9,1.26 4.82,4.51 6.5,7.22c2.62,4.22 3.09,6.07 3.38,13c0.23,5.54 -0.15,9.34 -1.2,12.08c-0.84,2.2 -3.35,5.91 -5.58,8.25c-2.23,2.34 -6.19,5.33 -8.8,6.65c-2.61,1.32 -7.56,2.89 -17.25,4.6l6.75,7.86c3.71,4.32 12.15,14.07 18.75,21.67c6.6,7.59 13.24,15.31 14.75,17.14c1.51,1.83 2.52,3.78 2.25,4.33c-0.27,0.55 -1.11,0.89 -1.85,0.75c-0.74,-0.14 -3.67,-2.95 -6.51,-6.25c-2.84,-3.3 -8.64,-10.09 -12.9,-15.08c-4.26,-5 -11.56,-13.49 -16.24,-18.88c-4.68,-5.39 -9.29,-10.19 -10.25,-10.67c-0.96,-0.48 -6.14,-0.87 -21.25,-0.87l0.32,24.75c0.28,21.74 0.12,24.93 -1.29,26.25c-1.48,1.38 -1.6,-2.98 -1.45,-53.87M275.75,155.9l0.25,25.1c18.93,0.39 27.37,0 30.96,-0.61c3.59,-0.61 8.34,-2.03 10.54,-3.16c2.2,-1.13 5.44,-3.56 7.2,-5.39c1.76,-1.84 3.9,-5.03 4.75,-7.09c0.85,-2.06 1.54,-6.34 1.53,-9.5c-0.01,-3.16 -0.57,-7.54 -1.25,-9.73c-0.68,-2.19 -2.58,-5.35 -4.23,-7.03c-1.65,-1.68 -5.25,-3.89 -8,-4.92c-3.99,-1.49 -8.74,-1.95 -23.5,-2.32l-18.5,-0.46M634.5,127.39c14.69,0.26 21.33,0.77 25,1.93c2.75,0.87 6.98,3.29 9.39,5.38c2.41,2.09 5.31,5.59 6.44,7.79c1.51,2.94 2.07,5.99 2.11,11.5c0.05,6.53 -0.33,8.19 -2.94,12.88c-1.65,2.96 -4.58,6.63 -6.5,8.17c-1.92,1.53 -5.08,3.45 -10.5,5.73l3.5,0.73c1.92,0.4 5.52,1.74 8,2.97c2.48,1.23 5.8,3.76 7.39,5.63c1.59,1.86 3.73,5.3 4.75,7.64c1.13,2.59 1.86,6.6 1.86,10.25c0,4.1 -0.73,7.66 -2.32,11.25c-1.3,2.93 -4.1,6.79 -6.35,8.75c-2.21,1.93 -6.68,4.6 -9.93,5.95c-5.6,2.33 -7.1,2.47 -52.4,3.05l-0.2,-54.42c-0.17,-46.74 0,-54.5 1.25,-54.98c0.8,-0.31 10.45,-0.41 21.45,-0.21zM616.1,155.65l-0.11,24.85c32.26,-1.19 37.63,-1.77 41.35,-3.17c2.75,-1.04 6.77,-3.78 9.31,-6.33c2.91,-2.94 5.02,-6.24 6.05,-9.5c0.97,-3.06 1.37,-6.75 1.05,-9.5c-0.29,-2.47 -1.43,-6.3 -2.53,-8.5c-1.1,-2.2 -2.84,-4.76 -3.86,-5.69c-1.02,-0.93 -4.11,-2.71 -6.86,-3.97c-4.54,-2.07 -6.81,-2.31 -24.64,-2.67l-19.64,-0.39M616.09,207.91l-0.09,25.09l43.5,-0.5c9.97,-5.43 13.7,-8.12 14.72,-9.5c1.02,-1.37 2.69,-5.43 3.7,-9c1.77,-6.28 1.77,-6.71 0.03,-12.5c-1.39,-4.64 -2.84,-6.97 -6.37,-10.25c-2.83,-2.63 -6.57,-4.89 -9.82,-5.92c-3.94,-1.25 -10.29,-1.77 -25.41,-2.09l-20.16,-0.42M804.99,127.26c29.11,0.22 31.51,0.37 31.75,1.99c0.25,1.63 -1.78,1.75 -61.74,1.75v48l25.74,0.25c23.63,0.23 25.76,0.39 26,2c0.24,1.63 -1.54,1.75 -51.74,1.75v50h31.5c29.43,0 31.48,0.11 31.24,1.75c-0.25,1.63 -2.6,1.75 -66.24,1.75l-0.42,-53.94c-0.35,-45.82 -0.2,-54.06 1,-54.74c0.78,-0.44 15.59,-0.7 32.9,-0.56zM941.28,127.01c8.37,0 18.15,0.48 21.72,1.06c3.58,0.58 8.41,1.93 10.75,2.99c2.34,1.07 5.63,3.4 7.32,5.19c1.69,1.79 3.81,4.6 4.71,6.25c1.17,2.13 1.65,5.6 1.68,12c0.03,7.31 -0.36,9.75 -2.09,13c-1.17,2.2 -4.1,5.77 -6.5,7.94c-2.4,2.17 -6.17,4.71 -8.37,5.65c-2.2,0.94 -6.54,2.32 -15.31,4.41l4.66,5.49c2.56,3.02 12.19,14.16 21.41,24.75c9.21,10.59 16.52,19.71 16.25,20.26c-0.27,0.55 -1.06,1.01 -1.75,1.02c-0.69,0.01 -2.21,-1.23 -3.38,-2.75c-1.17,-1.52 -5.22,-6.17 -9,-10.33c-3.78,-4.16 -12.72,-14.41 -19.87,-22.78c-7.15,-8.37 -13.56,-15.43 -14.25,-15.69c-0.69,-0.26 -5.75,-0.47 -21.25,-0.47v25.5c0,23.72 -0.12,25.48 -1.75,25.24c-1.64,-0.25 -1.77,-3.68 -2.1,-52.55c-0.25,-37.63 -0.03,-52.83 0.78,-54.24c1.04,-1.8 2.31,-1.95 16.35,-1.94zM928.11,155.89l-0.11,25.11c24.75,-0.02 32.39,-0.53 35.5,-1.36c2.75,-0.73 6.35,-2.04 8,-2.9c1.65,-0.86 4.19,-2.84 5.64,-4.41c1.45,-1.56 3.42,-4.41 4.38,-6.34c0.96,-1.93 1.96,-5.97 2.23,-9c0.26,-3.03 -0.07,-7.53 -0.73,-10c-0.81,-3 -2.59,-5.83 -5.36,-8.5c-2.29,-2.2 -5.95,-4.62 -8.15,-5.37c-2.57,-0.88 -10.63,-1.55 -22.64,-1.86l-18.64,-0.48M1102.91,127.24c38.7,0.24 41.58,0.38 41.82,2.01c0.24,1.62 -1.28,1.75 -40.74,1.75v52.5c0,49.43 -0.1,52.48 -1.75,52.24c-1.64,-0.25 -1.75,-3.52 -1.75,-104.74l-20.25,0c-16.13,0 -20.28,-0.27 -20.42,-1.33c-0.09,-0.73 0.21,-1.64 0.68,-2.01c0.46,-0.37 19.55,-0.56 42.4,-0.42zM1249,133.07c3.58,-0.02 9.31,0.63 12.75,1.44c3.44,0.82 8.84,2.82 12,4.46c3.16,1.64 6.52,3.55 7.46,4.25c0.94,0.7 1.73,1.84 1.75,2.53c0.02,0.69 -0.3,1.24 -0.71,1.23c-0.41,-0.01 -2.78,-1.35 -5.25,-2.97c-2.47,-1.62 -7.2,-3.91 -10.5,-5.09c-3.32,-1.19 -9.58,-2.36 -14,-2.63c-5.42,-0.33 -10.17,0.03 -14.75,1.11c-3.71,0.88 -9.11,2.8 -12,4.26c-2.89,1.46 -7.53,4.95 -10.32,7.75c-2.83,2.84 -6.46,7.97 -8.21,11.59c-1.73,3.57 -3.66,9.2 -4.29,12.5c-0.66,3.41 -0.94,10.53 -0.67,16.5c0.41,9.03 0.95,11.62 3.84,18.5c2.29,5.44 5,9.76 8.48,13.5c3.22,3.46 7.49,6.67 11.52,8.65c3.52,1.73 8.76,3.64 11.65,4.25c2.89,0.61 7.61,1.1 10.5,1.11c2.89,0 7.95,-0.5 11.25,-1.12c3.3,-0.62 7.8,-1.91 10,-2.87c2.2,-0.96 6.14,-3.38 8.75,-5.38c2.61,-2 5.42,-3.64 6.25,-3.64c0.83,0 1.51,0.34 1.52,0.75c0.01,0.41 -2.13,2.41 -4.75,4.43c-2.62,2.03 -7.24,4.78 -10.27,6.11c-3.03,1.34 -8.42,2.94 -12,3.56c-3.58,0.62 -8.75,1.14 -11.5,1.15c-2.75,0.01 -8.6,-0.91 -13,-2.04c-4.4,-1.13 -9.58,-3.02 -11.5,-4.2c-1.92,-1.18 -5.46,-3.75 -7.85,-5.71c-2.39,-1.96 -6.02,-6.26 -8.06,-9.56c-2.04,-3.3 -4.47,-8.03 -5.39,-10.5c-0.93,-2.47 -2.14,-8.21 -2.69,-12.75c-0.67,-5.52 -0.68,-10.9 -0.01,-16.25c0.56,-4.45 2.32,-11.22 3.97,-15.25c1.96,-4.8 4.8,-9.28 8.38,-13.25c2.98,-3.3 7.83,-7.45 10.78,-9.23c2.95,-1.77 8.74,-4.11 12.87,-5.19c4.13,-1.08 10.42,-1.99 14,-2.01z" />
</svg>