<?xml version="1.0" encoding="utf-8"?>
<!-- Generator: Adobe Illustrator 15.0.2, SVG Export Plug-In . SVG Version: 6.00 Build 0)  -->
<!DOCTYPE svg PUBLIC "-//W3C//DTD SVG 1.1//EN" "http://www.w3.org/Graphics/SVG/1.1/DTD/svg11.dtd">
<svg version="1.1" id="Livello_1" xmlns="http://www.w3.org/2000/svg" xmlns:xlink="http://www.w3.org/1999/xlink" x="0px" y="0px"
	 width="2480px" height="370px" viewBox="0 0 2480 370" enable-background="new 0 0 2480 370" xml:space="preserve">
<path d="M1248.5,118.09c8.14-0.08,13.08,0.42,19,1.95c4.4,1.13,11.57,3.95,15.939,6.26c4.36,2.31,10.891,6.93,14.5,10.27
	c3.61,3.34,8.551,9.19,10.971,13s5.529,9.85,6.92,13.43c2.1,5.44,2.59,8.71,2.98,20c0.42,11.91,0.209,14.38-1.761,21
	c-1.229,4.13-3.54,9.971-5.14,13s-4.82,7.85-7.16,10.721c-2.34,2.869-6.72,7.279-9.75,9.799c-3.03,2.521-9.1,6.351-13.5,8.521
	s-10.92,4.67-14.5,5.56c-4.92,1.221-9.91,1.51-20.5,1.221c-12.12-0.34-15.01-0.76-21.5-3.11c-4.12-1.489-9.96-4.181-12.96-5.96
	s-8.89-6.62-13.101-10.74c-4.8-4.72-9.069-10.1-11.489-14.5c-2.12-3.85-4.69-9.699-5.72-13c-1.03-3.32-2.12-10.689-2.44-16.5
	c-0.47-8.71-0.21-11.95,1.56-19c1.17-4.68,3.48-11.2,5.141-14.5c1.66-3.3,5.18-8.7,7.82-12c2.649-3.3,7.709-8.2,11.239-10.89
	c3.54-2.69,9.24-6.22,12.681-7.84c3.439-1.62,6.81-3.06,7.5-3.2c0.689-0.14,1.92-0.55,2.75-0.9c0.83-0.35,3.3-1.05,5.5-1.55
	c2.199-0.5,8.949-0.96,15-1.02L1248.5,118.09z M1227.83,123.35c0.09-0.19-3.55,1.53-8.08,3.82c-6.49,3.27-10.18,6.1-17.311,13.25
	c-6.51,6.53-9.959,10.92-12.229,15.59c-1.74,3.57-3.85,9.2-4.69,12.5c-0.93,3.67-1.529,10.48-1.529,17.5
	c0,7.03,0.59,13.74,1.51,17.25c0.83,3.16,2.82,8.34,4.43,11.5c1.61,3.16,5.101,8.34,7.75,11.51c2.65,3.17,7.301,7.801,10.32,10.291
	c3.03,2.489,8.2,5.869,11.5,7.51c3.3,1.64,8.47,3.64,11.5,4.449c3.03,0.811,6.74,1.471,8.25,1.48s2.75,0.35,2.75,0.76
	s3.38,0.75,7.5,0.75c4.13,0,7.49-0.22,7.49-0.5c-0.01-0.279,2.13-0.8,4.75-1.16c2.62-0.369,7.24-1.52,10.26-2.56
	c3.03-1.04,8.2-3.511,11.5-5.49s9.4-7.13,13.55-11.44c5.2-5.399,8.71-10.18,11.261-15.35c2.039-4.119,4.43-10.869,5.3-15
	c1.14-5.4,1.439-10.439,1.05-18c-0.32-6.23-1.35-13.14-2.55-17c-1.101-3.57-4.2-9.87-6.88-14c-2.681-4.12-7.99-10.35-11.811-13.83
	c-3.96-3.62-9.93-7.79-13.93-9.73c-3.851-1.87-9.7-4.09-13-4.92c-3.771-0.96-10.271-1.49-17.5-1.45
	c-6.33,0.04-13.71,0.65-16.42,1.35c-2.7,0.7-4.84,1.12-4.75,0.93L1227.83,123.35z M1590.5,125.28c12.689,0.29,14.52,0.57,19.5,2.95
	c3.03,1.45,8.04,4.57,11.14,6.95c3.101,2.38,6.521,5.44,7.591,6.82c1.069,1.38,3.14,4.53,4.59,7c1.449,2.47,3.76,8.1,5.14,12.5
	c2.04,6.51,2.51,10.05,2.51,19c0,8.279-0.52,12.73-2.1,18c-1.15,3.85-3.47,9.7-5.14,13s-5.45,8.359-8.391,11.25
	c-2.939,2.891-8.15,6.6-11.59,8.24c-3.439,1.64-9.4,3.66-13.25,4.48c-3.85,0.819-8.91,1.5-11.25,1.51s-7.51-0.601-11.5-1.36
	c-3.99-0.761-9.28-2.25-11.75-3.31c-2.47-1.061-6.53-3.301-9-4.971s-6.84-6.14-9.689-9.939c-2.86-3.801-6.07-9.381-7.141-12.4
	c-1.07-3.029-2.51-9.32-3.189-14c-0.74-5.029-0.99-11.57-0.601-16c0.36-4.12,1.31-9.97,2.13-13c0.811-3.03,2.601-7.75,3.971-10.5
	c1.369-2.75,4.409-7.21,6.76-9.91c2.35-2.7,6.75-6.59,9.77-8.64c3.03-2.05,8.2-4.69,11.5-5.86c5.26-1.87,7.73-2.09,20-1.81H1590.5z
	 M1564.08,134.29c-2.98,1.77-7.72,5.46-10.53,8.21c-3.739,3.67-5.96,7.06-8.33,12.75c-1.899,4.57-3.67,11.13-4.31,16
	c-0.6,4.54-0.8,11.4-0.46,15.25c0.35,3.85,1.33,9.471,2.189,12.5c0.86,3.029,2.591,7.529,3.851,10s4.06,6.529,6.229,9
	s6.15,5.95,8.851,7.71c2.74,1.79,8.449,4.12,12.92,5.261c4.399,1.129,10.47,2.049,13.5,2.039c3.029,0,8.199-0.51,11.5-1.119
	c3.3-0.611,8.47-2.221,11.5-3.57c3.029-1.35,7.3-3.95,9.5-5.78c2.199-1.819,5.58-5.95,7.5-9.16s4.649-9.229,6.05-13.36
	c1.83-5.399,2.63-10.069,2.82-16.52c0.17-5.77-0.341-11.69-1.421-16.5c-0.93-4.12-2.909-10.2-4.39-13.5
	c-1.479-3.3-4.239-7.75-6.13-9.9c-1.89-2.14-5.91-5.57-8.93-7.62c-3.03-2.05-7.75-4.52-10.5-5.48c-3.03-1.06-8.94-1.9-15-2.12
	c-6.93-0.26-11.69,0.1-15.5,1.16c-3.03,0.84-7.94,2.98-10.92,4.75H1564.08z M1778.5,125.08c7.63-0.03,15.061,0.48,18,1.25
	c2.75,0.72,7.7,2.91,11,4.88c3.3,1.97,6.67,4.32,7.5,5.23c1,1.1,1.17,1.98,0.5,2.65s-2.98-0.27-7-2.86c-3.3-2.13-7.35-4.37-9-4.98
	c-1.65-0.62-5.36-1.6-8.25-2.18c-2.89-0.59-8.74-1.05-13-1.03s-10.45,0.6-13.75,1.29s-8.68,2.59-11.96,4.21
	c-3.28,1.63-8.49,5.43-11.57,8.46c-3.45,3.38-6.67,7.81-8.37,11.5c-1.52,3.3-3.229,6.9-3.8,8c-0.569,1.1-1.51,5.82-2.09,10.5
	c-0.72,5.79-0.729,11.21-0.05,17c0.77,6.58,1.93,10.42,5.1,17c2.25,4.68,5.641,10.3,7.521,12.5s6.08,5.439,9.33,7.2
	c3.25,1.76,9.51,4.13,13.909,5.26c5.091,1.31,11.091,2.05,16.5,2.03c4.67-0.02,11.65-0.7,15.5-1.51
	c3.851-0.82,10.261-3.061,21.5-8.48v-32h-12.5c-11.34,0-12.479-0.16-12.239-1.75c0.229-1.55,1.75-1.779,13-2
	c10.229-0.2,13.03,0.04,14.239,1.25c1.221,1.221,1.5,4.68,1.48,18.25c-0.01,9.21-0.35,17.279-0.75,17.92s-3.43,2.51-6.73,4.141
	c-3.3,1.629-8.029,3.649-10.5,4.469c-2.47,0.83-8.1,2.07-12.5,2.761c-4.699,0.739-11.1,1-15.5,0.64
	c-4.119-0.34-10.199-1.32-13.5-2.18c-3.3-0.859-8.47-2.76-11.5-4.221c-3.029-1.459-8.039-5.159-11.149-8.219
	c-4.14-4.07-6.75-7.91-9.75-14.311c-2.26-4.82-4.61-11.779-5.24-15.5c-0.649-3.83-0.899-10.85-0.58-16.25
	c0.42-7.07,1.28-11.29,3.351-16.5c1.529-3.85,3.92-9.03,5.31-11.5s4.33-6.24,6.54-8.36c2.21-2.12,6.939-5.58,10.51-7.68
	c3.58-2.1,8.971-4.5,12-5.32c3.51-0.96,10.2-1.52,18.5-1.56H1778.5z M470.5,126.14c5.29-0.06,11.47,0.54,15,1.46
	c3.3,0.86,8.25,2.68,11,4.04c2.75,1.36,7.87,5.26,11.37,8.67c4.52,4.39,7.33,8.23,9.64,13.19c1.8,3.85,3.84,9.7,4.54,13
	s1.271,10.28,1.271,15.5c0,5.221-0.561,12.2-1.24,15.5s-2.89,9.33-4.91,13.41c-2.56,5.18-5.47,9.1-9.67,13.029
	c-3.3,3.09-9.15,7.181-20,12.561h-32l-7.75-3.75c-5.29-2.561-9.58-5.6-13.5-9.58c-3.16-3.21-6.96-8.05-8.44-10.75
	c-1.479-2.699-3.67-8.97-4.859-13.92c-1.79-7.439-2.08-10.91-1.66-20c0.37-7.94,1.18-12.94,2.91-18c1.319-3.85,3.939-9.25,5.81-12
	c1.88-2.75,5.681-7.17,8.45-9.81c2.771-2.65,7.29-5.91,10.04-7.26c2.75-1.34,7.25-3.06,10-3.81S465.55,126.2,470.5,126.14z
	 M453.5,132.52c-2.75,0.93-6.35,2.5-8,3.5s-5.54,4.44-8.65,7.65c-3.109,3.21-6.81,8.31-8.229,11.33c-1.42,3.03-3.26,8.65-4.08,12.5
	c-0.83,3.85-1.5,10.38-1.5,14.5c0,4.13,0.61,10.43,1.35,14c0.74,3.57,2.721,9.43,4.4,13c1.94,4.141,4.99,8.35,8.38,11.6
	c2.93,2.801,8.71,6.851,12.83,8.99l7.5,3.9l27,0.02c12.01-5.81,17.58-9.41,20.12-11.75s5.67-6.05,6.96-8.25
	c1.29-2.199,3.35-6.699,4.57-10c1.949-5.25,2.229-7.93,2.229-21.5c0-13.57-0.28-16.25-2.229-21.5c-1.23-3.3-3.29-7.8-4.58-10
	c-1.29-2.2-4.54-6.06-7.21-8.59c-2.67-2.52-7.11-5.72-9.86-7.11s-7.25-3.01-10-3.6s-7.02-1.26-9.5-1.48
	c-2.48-0.23-7.2-0.07-10.5,0.35s-8.25,1.52-11,2.45V132.52z M1368.5,126c1.311,0,1.5,4.72,1.5,36.5c0,23.471,0.41,38.37,1.13,41.75
	c0.62,2.891,2.4,7.5,3.94,10.25s4.52,6.73,6.619,8.85c2.101,2.121,5.391,4.641,7.311,5.61s5.97,2.34,9,3.04
	c3.23,0.75,8.6,1.07,13,0.779c4.89-0.319,9.41-1.35,13-2.939c3.03-1.34,7.45-4.449,9.84-6.9c2.38-2.449,5.76-7.369,10.66-17.399
	l0.5-39.51c0.46-36.64,0.63-39.53,2.25-39.77c1.65-0.25,1.74,2.14,1.25,80.35l-3.5,6.861c-1.92,3.77-5.12,8.699-7.11,10.949
	c-1.979,2.25-6.029,5.41-9,7.01c-2.97,1.61-7.64,3.521-10.39,4.24c-2.75,0.721-7.7,1.311-11,1.311s-8.25-0.601-11-1.34
	c-2.75-0.73-6.91-2.301-9.25-3.49c-2.34-1.18-6.09-3.84-8.34-5.9c-2.46-2.25-5.67-6.95-11.971-19.75l0.03-40.25
	C1367,131.15,1367.189,126,1368.5,126z M1911,126c1.95,0,2,0.67,2,52h76v-26c0-25.33,0.05-26,2-26c1.98,0,2,0.67,2,54.5
	s-0.02,54.5-2,54.5c-1.95,0-2-0.67-2-54h-76v27c0,26.33-0.05,27-2,27c-1.98,0-2-0.67-2-54.5S1909.02,126,1911,126z M2091.58,126
	c1.2,0,1.42,8.18,1.42,54.5c0,47.779-0.189,54.5-1.5,54.5c-0.82,0-1.72-0.68-2-1.5s-0.5-24.68-0.5-53c0-28.32,0.26-52.18,0.58-53
	C2089.9,126.67,2090.8,126,2091.58,126z M273.24,126.76l19.13,0.49c13.44,0.35,20.62,0.96,24.13,2.07c2.75,0.87,6.55,2.61,8.45,3.88
	c1.9,1.26,4.82,4.51,6.5,7.22c2.62,4.22,3.09,6.07,3.38,13c0.23,5.54-0.15,9.34-1.2,12.08c-0.84,2.2-3.35,5.91-5.58,8.25
	s-6.19,5.33-8.8,6.65c-2.61,1.32-7.56,2.89-17.25,4.6l6.75,7.859c3.71,4.32,12.15,14.07,18.75,21.67
	c6.6,7.591,13.24,15.311,14.75,17.141s2.52,3.78,2.25,4.33s-1.11,0.891-1.85,0.75c-0.74-0.141-3.67-2.95-6.51-6.25
	c-2.84-3.3-8.64-10.09-12.9-15.08c-4.26-5-11.56-13.49-16.24-18.88s-9.29-10.19-10.25-10.67c-0.96-0.48-6.14-0.87-21.25-0.87
	l0.32,24.75c0.28,21.74,0.12,24.93-1.29,26.25c-1.48,1.38-1.6-2.98-1.45-53.87L273.24,126.76z M275.75,155.9L276,181
	c18.93,0.39,27.37,0,30.96-0.61c3.59-0.61,8.34-2.03,10.54-3.16s5.44-3.56,7.2-5.39c1.76-1.84,3.9-5.03,4.75-7.09
	c0.85-2.06,1.54-6.34,1.53-9.5c-0.01-3.16-0.57-7.54-1.25-9.73s-2.58-5.35-4.23-7.03c-1.65-1.68-5.25-3.89-8-4.92
	c-3.99-1.49-8.74-1.95-23.5-2.32l-18.5-0.46L275.75,155.9z M634.5,127.39c14.69,0.26,21.33,0.77,25,1.93
	c2.75,0.87,6.98,3.29,9.39,5.38c2.41,2.09,5.311,5.59,6.44,7.79c1.51,2.94,2.07,5.99,2.11,11.5c0.05,6.53-0.33,8.19-2.94,12.88
	c-1.65,2.96-4.58,6.63-6.5,8.17c-1.92,1.53-5.08,3.45-10.5,5.73l3.5,0.73c1.92,0.4,5.52,1.74,8,2.97s5.8,3.76,7.39,5.629
	c1.591,1.86,3.73,5.301,4.75,7.641c1.13,2.59,1.86,6.6,1.86,10.25c0,4.1-0.73,7.66-2.32,11.25c-1.3,2.93-4.1,6.789-6.35,8.75
	c-2.21,1.93-6.68,4.6-9.93,5.949c-5.601,2.33-7.101,2.471-52.4,3.051l-0.2-54.42c-0.17-46.74,0-54.5,1.25-54.98
	c0.8-0.31,10.45-0.41,21.45-0.21V127.39z M616.1,155.65l-0.109,24.85c32.26-1.19,37.63-1.77,41.35-3.17
	c2.75-1.04,6.771-3.78,9.311-6.33c2.909-2.94,5.02-6.24,6.05-9.5c0.97-3.06,1.37-6.75,1.05-9.5c-0.29-2.47-1.43-6.3-2.53-8.5
	c-1.1-2.2-2.84-4.76-3.859-5.69c-1.021-0.93-4.11-2.71-6.86-3.97c-4.54-2.07-6.81-2.31-24.64-2.67l-19.641-0.39L616.1,155.65z
	 M616.09,207.91L616,233l43.5-0.5c9.97-5.43,13.7-8.12,14.72-9.5c1.021-1.37,2.69-5.43,3.7-9c1.771-6.279,1.771-6.71,0.03-12.5
	c-1.391-4.641-2.84-6.971-6.37-10.25c-2.83-2.63-6.57-4.891-9.82-5.92c-3.939-1.25-10.29-1.77-25.41-2.09l-20.159-0.42
	L616.09,207.91z M804.99,127.26c29.109,0.22,31.51,0.37,31.75,1.99c0.25,1.63-1.78,1.75-61.74,1.75v48l25.74,0.25
	c23.63,0.23,25.76,0.39,26,2c0.24,1.63-1.54,1.75-51.74,1.75v50h31.5c29.43,0,31.48,0.109,31.24,1.75
	c-0.25,1.63-2.601,1.75-66.24,1.75l-0.42-53.94c-0.35-45.82-0.2-54.06,1-54.74c0.78-0.44,15.59-0.7,32.9-0.56H804.99z
	 M941.28,127.01c8.37,0,18.149,0.48,21.72,1.06c3.58,0.58,8.41,1.93,10.75,2.99c2.34,1.07,5.63,3.4,7.32,5.19
	c1.689,1.79,3.81,4.6,4.71,6.25c1.17,2.13,1.649,5.6,1.68,12c0.03,7.31-0.36,9.75-2.09,13c-1.17,2.2-4.101,5.77-6.5,7.94
	c-2.4,2.17-6.17,4.71-8.37,5.65s-6.54,2.32-15.31,4.41l4.659,5.49c2.561,3.02,12.19,14.16,21.41,24.75
	c9.21,10.59,16.521,19.71,16.25,20.26c-0.27,0.55-1.06,1.01-1.75,1.02c-0.689,0.01-2.21-1.229-3.38-2.75
	c-1.17-1.52-5.22-6.17-9-10.33s-12.72-14.41-19.87-22.779c-7.149-8.37-13.56-15.43-14.25-15.69c-0.689-0.26-5.75-0.47-21.25-0.47
	v25.5c0,23.721-0.12,25.48-1.75,25.24c-1.64-0.25-1.77-3.68-2.1-52.55c-0.25-37.63-0.03-52.83,0.78-54.24
	c1.04-1.8,2.31-1.95,16.35-1.94H941.28z M928.11,155.89L928,181c24.75-0.02,32.39-0.53,35.5-1.36c2.75-0.73,6.35-2.04,8-2.9
	c1.65-0.86,4.19-2.84,5.64-4.41c1.45-1.56,3.42-4.41,4.38-6.34c0.961-1.93,1.961-5.97,2.23-9c0.26-3.03-0.07-7.53-0.73-10
	c-0.81-3-2.59-5.83-5.359-8.5c-2.29-2.2-5.95-4.62-8.15-5.37c-2.569-0.88-10.63-1.55-22.64-1.86l-18.64-0.48L928.11,155.89z
	 M1102.91,127.24c38.7,0.24,41.58,0.38,41.82,2.01c0.239,1.62-1.28,1.75-40.74,1.75v52.5c0,49.43-0.101,52.48-1.75,52.24
	c-1.641-0.25-1.75-3.52-1.75-104.74h-20.25c-16.13,0-20.28-0.27-20.42-1.33c-0.09-0.73,0.21-1.64,0.68-2.01
	c0.46-0.37,19.55-0.56,42.4-0.42H1102.91z M1247.989,141.014c3.043-0.017,7.914,0.536,10.837,1.224
	c2.924,0.697,7.515,2.397,10.2,3.792c2.687,1.394,5.542,3.017,6.341,3.612c0.8,0.595,1.471,1.564,1.488,2.15
	s-0.255,1.054-0.604,1.045c-0.349-0.008-2.363-1.147-4.463-2.524s-6.12-3.323-8.925-4.327c-2.822-1.011-8.144-2.006-11.9-2.235
	c-4.606-0.28-8.645,0.025-12.537,0.943c-3.153,0.748-7.744,2.38-10.2,3.621c-2.456,1.241-6.4,4.208-8.772,6.588
	c-2.405,2.414-5.491,6.774-6.978,9.851c-1.47,3.035-3.11,7.82-3.647,10.625c-0.561,2.899-0.798,8.951-0.569,14.025
	c0.349,7.675,0.808,9.877,3.264,15.726c1.946,4.623,4.25,8.296,7.208,11.475c2.736,2.941,6.366,5.67,9.792,7.353
	c2.992,1.471,7.447,3.094,9.903,3.613c2.456,0.518,6.469,0.935,8.925,0.942c2.456,0,6.758-0.425,9.562-0.951
	c2.805-0.528,6.63-1.624,8.5-2.44c1.87-0.815,5.219-2.872,7.438-4.572s4.607-3.095,5.312-3.095c0.706,0,1.283,0.289,1.292,0.638
	s-1.811,2.049-4.038,3.766c-2.226,1.726-6.153,4.063-8.729,5.193c-2.576,1.139-7.157,2.5-10.2,3.026
	c-3.043,0.527-7.438,0.969-9.775,0.978c-2.337,0.008-7.31-0.773-11.05-1.734c-3.74-0.96-8.143-2.567-9.775-3.57
	c-1.632-1.002-4.641-3.188-6.672-4.854c-2.032-1.666-5.117-5.32-6.852-8.125c-1.734-2.806-3.799-6.826-4.581-8.925
	c-0.791-2.101-1.818-6.979-2.287-10.838c-0.57-4.691-0.578-9.266-0.008-13.812c0.477-3.783,1.972-9.537,3.374-12.962
	c1.666-4.081,4.08-7.888,7.123-11.263c2.533-2.805,6.655-6.333,9.163-7.846c2.508-1.504,7.429-3.494,10.939-4.412
	c3.511-0.917,8.857-1.691,11.9-1.708V141.014z"/>
</svg>
