<?xml version="1.0" standalone="no"?>
<!DOCTYPE svg PUBLIC "-//W3C//DTD SVG 20010904//EN"
 "http://www.w3.org/TR/2001/REC-SVG-20010904/DTD/svg10.dtd">
<svg version="1.0" xmlns="http://www.w3.org/2000/svg"
 width="2336.000000pt" height="2295.000000pt" viewBox="0 0 2336.000000 2295.000000"
 preserveAspectRatio="xMidYMid meet">

<g transform="translate(0.000000,2295.000000) scale(0.100000,-0.100000)"
fill="#000000" stroke="none">
<path d="M11160 22094 c-455 -24 -710 -47 -1030 -90 -1981 -266 -3857 -1090
-5391 -2367 -2178 -1814 -3538 -4395 -3803 -7222 -33 -353 -41 -531 -41 -985
0 -454 8 -632 41 -985 234 -2497 1324 -4814 3093 -6575 1657 -1649 3793 -2704
6102 -3014 505 -68 854 -91 1419 -91 472 0 641 8 1029 46 2874 279 5506 1709
7306 3968 1296 1627 2084 3586 2279 5666 33 353 41 531 41 985 0 454 -8 632
-41 985 -234 2497 -1324 4814 -3093 6575 -1193 1187 -2615 2058 -4216 2583
-830 272 -1663 435 -2575 502 -190 15 -964 27 -1120 19z m801 -1204 c1328 -66
2562 -388 3739 -976 1182 -591 2187 -1386 3035 -2404 737 -884 1323 -1939
1695 -3049 250 -747 401 -1500 466 -2331 14 -171 18 -335 18 -680 0 -489 -11
-705 -60 -1110 -180 -1509 -698 -2914 -1538 -4170 -731 -1092 -1679 -2018
-2781 -2715 -639 -405 -1385 -757 -2090 -988 -2341 -766 -4868 -584 -7065 509
-1191 592 -2202 1391 -3055 2414 -736 883 -1323 1939 -1695 3049 -250 747
-401 1500 -467 2331 -24 312 -24 1052 0 1360 123 1536 558 2913 1330 4205 746
1252 1810 2340 3054 3124 632 398 1368 745 2068 974 1079 353 2241 512 3346
457z"/>
<path d="M9810 14322 c-118 -48 -233 -145 -315 -266 -56 -83 -57 -84 -65 -182
-5 -54 -9 -303 -10 -551 l0 -453 -2452 -2 c-2338 -3 -2456 -4 -2508 -21 -30
-10 -77 -26 -105 -34 -178 -58 -372 -231 -446 -398 -75 -169 -80 -377 -14
-530 54 -126 72 -153 170 -251 107 -108 170 -146 346 -211 l74 -28 2463 -3
2462 -2 0 -290 0 -289 -2452 -4 -2453 -3 -75 -21 c-75 -22 -232 -91 -238 -105
-2 -5 -10 -8 -18 -8 -8 0 -17 -7 -20 -15 -4 -8 -13 -15 -20 -15 -8 0 -17 -7
-20 -15 -4 -8 -12 -15 -19 -15 -19 0 -142 -155 -175 -219 -72 -144 -93 -355
-49 -497 44 -142 86 -211 194 -319 114 -114 188 -159 344 -209 l96 -31 2457
-2 2457 -3 3 -528 c3 -414 7 -534 17 -562 42 -107 172 -250 292 -321 l74 -44
125 0 125 1 1365 322 c751 178 1793 425 2315 548 523 124 1029 245 1125 270
96 25 968 264 1938 530 1225 337 1791 496 1853 523 121 52 183 91 295 183 257
213 388 471 401 794 15 351 -96 627 -353 875 -150 144 -279 226 -459 289 -84
30 -4409 1143 -5074 1306 -350 86 -465 113 -2361 560 -1049 248 -1073 253
-1165 259 -63 4 -89 2 -125 -13z"/>
</g>
</svg>
