<svg height="2295pt" preserveAspectRatio="xMidYMid meet" viewBox="0 0 2336 2295" width="2336pt" xmlns="http://www.w3.org/2000/svg"><path d="m9810 14322c-118-48-233-145-315-266-56-83-57-84-65-182-5-54-9-303-10-551v-453l-2452-2c-2338-3-2456-4-2508-21-30-10-77-26-105-34-178-58-372-231-446-398-75-169-80-377-14-530 54-126 72-153 170-251 107-108 170-146 346-211l74-28 2463-3 2462-2v-290-289l-2452-4-2453-3-75-21c-75-22-232-91-238-105-2-5-10-8-18-8s-17-7-20-15c-4-8-13-15-20-15-8 0-17-7-20-15-4-8-12-15-19-15-19 0-142-155-175-219-72-144-93-355-49-497s86-211 194-319c114-114 188-159 344-209l96-31 2457-2 2457-3 3-528c3-414 7-534 17-562 42-107 172-250 292-321l74-44h125l125 1 1365 322c751 178 1793 425 2315 548 523 124 1029 245 1125 270s968 264 1938 530c1225 337 1791 496 1853 523 121 52 183 91 295 183 257 213 388 471 401 794 15 351-96 627-353 875-150 144-279 226-459 289-84 30-4409 1143-5074 1306-350 86-465 113-2361 560-1049 248-1073 253-1165 259-63 4-89 2-125-13z" transform="matrix(.1 0 0 -.1 0 2295)"/></svg>