<?xml version="1.0" standalone="no"?>
<!DOCTYPE svg PUBLIC "-//W3C//DTD SVG 20010904//EN"
 "http://www.w3.org/TR/2001/REC-SVG-20010904/DTD/svg10.dtd">
<svg version="1.0" xmlns="http://www.w3.org/2000/svg"
 width="2336.000000pt" height="2295.000000pt" viewBox="0 0 2336.000000 2295.000000"
 preserveAspectRatio="xMidYMid meet">

<g transform="translate(0.000000,2295.000000) scale(0.100000,-0.100000)"
fill="#000000" stroke="none">
<path d="M11160 22094 c-455 -24 -710 -47 -1030 -90 -1981 -266 -3857 -1090
-5391 -2367 -2178 -1814 -3538 -4395 -3803 -7222 -33 -353 -41 -531 -41 -985
0 -454 8 -632 41 -985 234 -2497 1324 -4814 3093 -6575 1657 -1649 3793 -2704
6102 -3014 505 -68 854 -91 1419 -91 472 0 641 8 1029 46 2874 279 5506 1709
7306 3968 1296 1627 2084 3586 2279 5666 33 353 41 531 41 985 0 454 -8 632
-41 985 -234 2497 -1324 4814 -3093 6575 -1193 1187 -2615 2058 -4216 2583
-830 272 -1663 435 -2575 502 -190 15 -964 27 -1120 19z m801 -1204 c1328 -66
2562 -388 3739 -976 1182 -591 2187 -1386 3035 -2404 737 -884 1323 -1939
1695 -3049 250 -747 401 -1500 466 -2331 14 -171 18 -335 18 -680 0 -489 -11
-705 -60 -1110 -180 -1509 -698 -2914 -1538 -4170 -731 -1092 -1679 -2018
-2781 -2715 -639 -405 -1385 -757 -2090 -988 -2341 -766 -4868 -584 -7065 509
-1191 592 -2202 1391 -3055 2414 -736 883 -1323 1939 -1695 3049 -250 747
-401 1500 -467 2331 -24 312 -24 1052 0 1360 123 1536 558 2913 1330 4205 746
1252 1810 2340 3054 3124 632 398 1368 745 2068 974 1079 353 2241 512 3346
457z"/>
<path d="M6055 15343 c-30 -7 -149 -65 -153 -75 -2 -4 -9 -8 -15 -8 -39 0
-251 -215 -300 -304 -12 -21 -27 -48 -34 -61 -29 -52 -37 -212 -39 -780 -2
-313 -6 -1216 -9 -2005 -6 -1257 -5 -1473 9 -1743 9 -169 14 -312 11 -316 -2
-5 -7 -557 -11 -1227 -5 -1101 -4 -1226 11 -1296 18 -90 56 -174 108 -245 79
-108 250 -246 360 -291 80 -32 412 -14 502 28 11 5 63 18 115 29 98 20 203 45
350 81 47 12 96 23 110 26 39 6 163 35 180 42 8 3 51 13 95 23 74 17 173 40
380 88 44 11 118 29 165 40 47 12 132 32 190 45 58 13 146 34 195 46 50 12
128 30 175 41 47 11 94 22 105 25 11 3 54 12 95 20 41 8 84 19 95 24 11 5 54
16 95 24 76 16 213 47 370 86 117 28 251 60 275 64 11 3 20 5 20 6 0 1 38 10
85 20 47 11 123 28 170 40 47 11 132 31 190 44 58 14 143 34 190 46 47 11 123
29 170 40 93 21 256 59 390 92 47 11 130 30 185 43 55 12 107 25 115 28 8 3
42 11 75 17 33 6 69 15 80 20 11 5 54 16 95 24 79 16 229 51 370 85 47 12 128
30 180 41 52 12 102 24 110 27 8 4 51 14 95 24 44 10 116 27 160 38 44 11 125
31 180 44 160 40 395 101 600 157 105 29 253 69 330 90 77 21 248 68 380 105
246 68 463 127 710 195 77 21 192 52 255 70 127 35 261 72 540 148 102 28 293
81 425 117 132 37 303 84 380 105 176 48 499 136 585 160 75 21 276 77 540
148 371 102 497 157 695 306 99 74 273 247 343 341 97 130 178 321 224 530 18
83 22 131 22 285 -1 163 -4 199 -27 300 -46 203 -105 343 -214 507 -66 101
-235 279 -352 371 -230 183 -389 250 -908 382 -305 78 -437 112 -858 220 -104
27 -289 74 -410 105 -121 31 -308 79 -415 106 -107 28 -280 72 -385 99 -255
65 -549 141 -780 200 -104 27 -298 76 -430 110 -132 34 -319 81 -415 106 -169
44 -306 79 -855 219 -143 36 -327 84 -410 105 -82 21 -265 68 -405 104 -140
36 -318 81 -395 101 -77 20 -167 42 -200 50 -33 8 -107 26 -165 40 -58 15
-141 35 -185 45 -44 11 -127 31 -185 45 -58 14 -143 35 -190 46 -47 11 -121
28 -165 39 -84 20 -250 58 -370 86 -38 8 -77 18 -85 22 -15 5 -56 15 -280 65
-58 13 -112 26 -120 30 -8 3 -44 11 -80 17 -36 6 -74 15 -85 20 -11 5 -63 18
-115 29 -52 11 -133 30 -180 41 -84 21 -241 58 -270 64 -8 2 -22 6 -30 9 -8 3
-44 11 -80 17 -36 6 -74 15 -85 20 -11 5 -54 16 -95 24 -148 30 -285 62 -295
67 -5 4 -41 12 -80 18 -38 7 -79 16 -90 21 -21 9 -98 27 -255 61 -52 11 -102
23 -110 26 -8 4 -51 15 -95 24 -44 10 -120 28 -170 39 -49 12 -97 23 -105 24
-9 1 -20 5 -25 8 -6 3 -44 11 -85 18 -41 7 -79 16 -85 20 -5 4 -41 13 -80 20
-38 7 -74 16 -80 20 -5 4 -55 15 -110 24 -55 10 -109 21 -120 26 -47 22 -252
37 -310 23z"/>
</g>
</svg>
